<?xml version="1.0" standalone="no"?>
<!DOCTYPE svg PUBLIC "-//W3C//DTD SVG 20010904//EN"
 "http://www.w3.org/TR/2001/REC-SVG-20010904/DTD/svg10.dtd">
<svg version="1.0" xmlns="http://www.w3.org/2000/svg"
 width="3000.000000pt" height="2000.000000pt" viewBox="0 0 3000.000000 2000.000000"
 preserveAspectRatio="xMidYMid meet">

<g transform="translate(0.000000,2000.000000) scale(0.100000,-0.100000)"
fill="#000000" stroke="none">
<path d="M17400 19010 c-30 -4 -108 -8 -172 -9 -64 -1 -138 -5 -165 -10 -212
-42 -522 -52 -2013 -62 -1342 -9 -1687 -18 -1995 -54 -27 -3 -113 -12 -190
-21 -77 -8 -156 -17 -175 -20 -43 -8 -154 -22 -235 -30 -33 -3 -64 -10 -70
-15 -5 -5 -20 -9 -34 -9 -13 0 -38 -4 -55 -10 -56 -18 -200 -53 -239 -57 -20
-3 -40 -9 -43 -14 -3 -5 -17 -9 -31 -9 -15 0 -40 -4 -57 -9 -17 -5 -51 -15
-76 -22 -25 -6 -63 -17 -85 -24 -22 -7 -60 -19 -85 -25 -97 -27 -116 -33 -132
-41 -10 -5 -27 -9 -37 -9 -11 0 -22 -4 -25 -9 -3 -5 -18 -11 -33 -14 -30 -5
-87 -24 -115 -38 -10 -5 -27 -9 -37 -9 -11 0 -23 -4 -26 -10 -3 -5 -15 -10
-26 -10 -10 0 -27 -4 -37 -9 -9 -5 -39 -16 -67 -25 -55 -17 -159 -53 -190 -66
-11 -5 -76 -29 -145 -55 -69 -26 -134 -50 -145 -55 -11 -4 -36 -13 -55 -20
-19 -7 -59 -23 -88 -36 -29 -13 -55 -24 -57 -24 -3 0 -27 -9 -53 -21 -26 -12
-56 -25 -67 -29 -28 -11 -80 -34 -150 -65 -33 -15 -73 -33 -90 -40 -16 -7 -57
-25 -90 -40 -33 -15 -80 -36 -105 -47 -63 -28 -160 -74 -345 -163 -185 -89
-157 -75 -310 -155 -66 -34 -147 -77 -180 -94 -33 -17 -62 -33 -65 -36 -6 -6
-103 -58 -137 -75 -13 -5 -23 -13 -23 -17 0 -5 -9 -8 -20 -8 -11 0 -20 -4 -20
-10 0 -5 -5 -10 -10 -10 -6 0 -27 -11 -48 -23 -20 -13 -72 -43 -116 -66 -43
-24 -137 -79 -208 -122 -72 -44 -134 -79 -139 -79 -5 0 -9 -4 -9 -9 0 -5 -8
-11 -17 -14 -10 -4 -45 -22 -78 -42 -33 -20 -67 -38 -75 -41 -8 -3 -24 -10
-35 -14 -29 -13 -145 -52 -185 -63 -19 -5 -181 -13 -360 -18 -323 -8 -569 -20
-770 -38 -297 -26 -356 -32 -370 -37 -8 -3 -163 -10 -345 -16 -181 -5 -373
-13 -425 -18 -88 -8 -136 -13 -325 -39 -38 -5 -104 -14 -145 -20 -42 -5 -87
-12 -100 -15 -113 -27 -377 -46 -770 -56 -492 -12 -699 -32 -975 -90 -22 -5
-53 -12 -70 -15 -16 -4 -39 -10 -50 -15 -11 -4 -40 -14 -65 -21 -25 -7 -49
-15 -55 -19 -5 -3 -44 -19 -85 -35 -184 -70 -202 -94 -201 -278 0 -78 4 -134
10 -140 6 -6 11 -21 11 -34 0 -13 4 -31 9 -41 4 -9 34 -69 64 -132 31 -63 72
-139 92 -168 19 -30 35 -55 35 -58 0 -2 24 -41 53 -86 70 -110 79 -131 75
-159 -2 -19 -11 -25 -43 -30 -22 -3 -74 -14 -115 -24 -41 -9 -93 -21 -115 -25
-65 -14 -144 -33 -250 -59 -22 -6 -61 -14 -86 -20 -25 -5 -56 -14 -70 -19 -13
-6 -44 -15 -69 -22 -25 -7 -56 -16 -70 -20 -14 -4 -45 -13 -70 -20 -25 -6 -53
-16 -62 -21 -10 -5 -23 -9 -30 -9 -7 0 -42 -12 -78 -26 -36 -15 -74 -30 -85
-34 -80 -31 -251 -113 -316 -151 -25 -14 -65 -38 -90 -51 -85 -48 -94 -53 -99
-59 -3 -3 -36 -27 -75 -54 -171 -120 -373 -310 -512 -482 -44 -56 -163 -239
-163 -252 0 -6 -3 -11 -7 -11 -5 0 -13 -10 -19 -23 -5 -12 -31 -62 -56 -112
-102 -201 -147 -313 -214 -530 -9 -27 -20 -58 -25 -67 -5 -10 -9 -25 -9 -35 0
-9 -4 -30 -9 -47 -20 -66 -75 -295 -86 -356 -3 -19 -10 -60 -16 -90 -17 -93
-28 -171 -38 -255 -5 -44 -14 -111 -20 -150 -14 -90 -14 -542 0 -660 5 -49 14
-142 20 -205 6 -63 15 -153 19 -200 29 -281 29 -329 0 -630 -5 -52 -14 -162
-20 -245 -5 -82 -14 -215 -20 -295 -22 -319 -10 -1295 20 -1660 6 -69 15 -179
21 -245 30 -371 45 -524 64 -670 8 -66 20 -158 26 -205 19 -144 39 -282 58
-385 10 -54 22 -110 52 -245 6 -25 13 -62 16 -83 3 -20 9 -40 14 -43 5 -3 9
-17 9 -31 0 -15 4 -40 10 -57 29 -93 59 -186 70 -226 8 -25 17 -49 22 -54 4
-6 8 -18 8 -28 0 -10 4 -26 9 -36 5 -9 24 -53 41 -97 46 -117 128 -282 170
-345 89 -130 232 -228 420 -285 47 -15 96 -30 110 -35 14 -5 45 -11 70 -14 25
-3 70 -11 100 -16 247 -45 1315 -46 1825 -1 93 8 75 16 -55 26 -270 20 -361
31 -615 70 -93 15 -199 31 -235 35 -74 10 -173 26 -210 33 -61 13 -149 30
-340 68 -113 23 -223 45 -245 49 -79 16 -118 29 -125 41 -7 10 2 48 30 124 4
11 29 88 56 170 26 83 51 154 56 159 4 6 8 18 8 28 0 10 4 26 10 36 9 16 87
261 111 347 6 22 15 51 19 65 8 26 34 125 51 195 6 22 15 54 20 71 5 17 9 44
9 61 0 16 4 43 9 59 5 16 14 67 20 114 28 220 42 329 51 380 5 30 11 71 14 90
3 19 7 49 11 65 3 17 8 40 11 53 2 13 9 20 14 17 6 -4 10 -299 10 -805 l0
-799 37 -10 c56 -14 173 -39 213 -46 50 -8 146 -25 208 -36 96 -17 156 -27
226 -38 37 -6 72 -13 76 -16 4 -2 33 -9 66 -15 32 -6 82 -16 109 -21 28 -6 68
-12 90 -16 22 -3 44 -9 50 -14 5 -5 20 -9 33 -9 25 0 67 -10 157 -36 72 -21
166 -45 195 -51 14 -2 34 -8 45 -13 11 -4 40 -13 65 -20 25 -7 63 -18 85 -25
22 -7 60 -18 85 -25 25 -8 49 -17 55 -22 5 -4 19 -8 31 -8 13 0 26 -4 29 -10
3 -5 16 -10 29 -10 12 0 26 -4 32 -9 5 -5 27 -14 49 -21 22 -7 56 -19 75 -27
50 -22 71 -29 110 -43 19 -7 49 -18 65 -25 17 -7 57 -22 90 -35 81 -30 96 -36
125 -48 14 -6 117 -47 230 -92 113 -45 219 -88 235 -95 17 -7 89 -37 160 -65
72 -29 134 -57 139 -62 6 -4 19 -8 31 -8 12 0 25 -4 31 -8 5 -5 63 -30 129
-57 66 -26 140 -56 165 -67 25 -11 60 -26 78 -34 17 -8 47 -20 65 -28 17 -8
56 -24 86 -36 30 -12 84 -35 120 -52 36 -16 75 -34 86 -38 11 -4 46 -20 78
-34 32 -14 60 -26 62 -26 3 0 27 -9 53 -21 26 -12 56 -25 67 -29 11 -4 46 -20
78 -34 32 -14 60 -26 62 -26 3 0 27 -9 53 -21 26 -12 56 -25 67 -29 11 -4 46
-20 78 -34 32 -14 60 -26 62 -26 3 0 25 -9 50 -20 25 -11 65 -29 90 -40 25
-11 47 -20 50 -20 2 0 30 -12 62 -26 32 -14 67 -30 78 -34 34 -13 98 -42 139
-61 22 -11 46 -19 53 -19 7 0 13 -3 13 -8 0 -4 18 -13 40 -20 22 -7 74 -28
116 -47 41 -19 81 -35 88 -35 6 0 16 -4 22 -9 5 -4 39 -20 77 -35 37 -14 89
-35 115 -47 26 -12 56 -25 67 -29 11 -4 36 -15 55 -23 19 -9 58 -25 86 -36 28
-11 73 -29 100 -41 27 -12 58 -26 69 -30 11 -4 41 -17 67 -29 26 -12 50 -21
53 -21 2 0 30 -12 62 -26 32 -14 69 -31 83 -36 14 -6 33 -14 42 -19 10 -5 22
-9 28 -9 5 0 35 -12 67 -26 32 -14 67 -29 78 -34 49 -18 260 -124 263 -132 2
-4 8 -8 14 -8 32 0 209 -157 276 -245 25 -33 49 -62 52 -65 3 -3 19 -23 35
-45 17 -22 32 -42 35 -45 3 -3 24 -27 45 -55 22 -27 53 -63 69 -80 16 -16 59
-66 96 -110 85 -100 385 -403 482 -486 40 -34 96 -83 124 -108 84 -75 145
-124 219 -176 39 -27 76 -55 82 -61 22 -21 356 -239 413 -269 30 -16 73 -39
95 -51 22 -13 112 -59 200 -103 145 -71 201 -98 260 -121 11 -4 36 -15 55 -23
19 -9 60 -25 90 -36 30 -12 64 -25 75 -30 11 -5 36 -14 55 -21 19 -7 44 -16
55 -20 47 -20 260 -87 345 -109 19 -5 53 -14 75 -20 90 -23 253 -60 295 -66
407 -60 455 -63 1295 -76 597 -9 893 -9 1385 1 880 18 1194 27 1275 40 208 31
236 36 365 65 41 10 95 21 120 26 25 4 66 13 93 19 26 5 68 15 95 20 26 6 67
15 92 20 63 12 95 19 170 35 123 26 287 35 660 35 361 0 544 -8 715 -31 81
-11 198 -23 405 -40 63 -5 338 -14 610 -19 513 -9 916 -24 1080 -39 498 -44
885 -52 1238 -26 87 6 114 18 75 32 -10 3 -29 14 -43 23 -14 10 -56 29 -95 44
-38 15 -79 31 -90 36 -37 16 -148 36 -270 49 -49 6 -112 13 -140 16 -81 9
-481 47 -590 56 -55 4 -138 12 -185 18 -47 5 -128 14 -180 20 -52 6 -194 22
-315 37 -121 14 -254 30 -295 35 -41 4 -106 12 -145 18 -183 27 -217 32 -310
46 -154 25 -312 48 -405 60 -126 16 -214 26 -300 35 -52 6 -140 17 -195 25
-55 8 -140 19 -190 25 -49 6 -112 15 -138 20 -27 6 -66 10 -87 10 -22 0 -61 4
-87 9 -26 5 -86 14 -133 20 -88 12 -232 34 -332 51 -32 6 -85 15 -118 20 -166
28 -269 47 -395 75 -38 8 -88 19 -110 24 -191 42 -502 135 -540 161 -5 4 -48
27 -95 52 -122 64 -164 92 -260 172 -143 119 -239 227 -332 376 -33 53 -123
230 -140 278 -4 12 -12 32 -17 45 -48 120 -91 298 -121 502 -28 187 -57 483
-71 710 -10 176 -22 339 -38 515 -16 179 -29 342 -41 495 -6 77 -13 147 -16
155 -3 8 -10 69 -15 135 -5 66 -14 165 -19 220 -6 55 -14 141 -19 190 -15 146
-29 272 -47 405 -8 69 -20 163 -25 210 -5 47 -13 121 -18 165 -5 44 -15 121
-20 170 -6 50 -15 124 -20 165 -6 41 -15 120 -21 175 -6 55 -13 107 -16 115
-3 8 -10 53 -15 100 -15 134 -27 238 -38 325 -6 44 -15 118 -20 165 -5 47 -12
96 -15 110 -4 14 -11 66 -17 115 -31 277 -31 274 -58 418 -6 31 -15 81 -21
110 -15 81 -41 218 -51 262 -9 45 -15 77 -30 155 -6 30 -15 73 -19 95 -43 194
-63 283 -71 303 -5 13 -9 33 -9 44 0 12 -4 35 -9 52 -10 32 -13 44 -56 206
-29 108 -44 164 -55 200 -4 14 -13 45 -20 70 -7 25 -23 77 -35 115 -12 39 -30
93 -38 120 -26 80 -87 257 -101 290 -8 17 -30 73 -51 125 -35 87 -46 114 -93
220 -67 153 -154 322 -290 562 -172 303 -431 634 -602 770 -65 51 -235 160
-305 195 -64 33 -234 103 -300 124 -22 7 -44 17 -49 21 -6 4 -22 8 -37 8 -15
0 -30 4 -33 9 -3 5 -20 11 -38 14 -18 3 -62 12 -98 21 -79 19 -254 41 -330 40
-84 0 -267 -22 -340 -40 -36 -9 -80 -18 -98 -21 -18 -3 -35 -9 -38 -14 -3 -5
-16 -9 -29 -9 -13 0 -27 -4 -30 -10 -3 -5 -13 -10 -21 -10 -21 0 -166 -71
-259 -127 -267 -161 -523 -454 -795 -912 -48 -80 -266 -406 -319 -476 -70 -93
-161 -185 -183 -185 -24 0 -32 53 -25 160 7 108 35 207 82 284 19 32 35 60 35
61 0 6 81 136 150 239 212 320 510 665 735 851 33 28 68 58 79 67 62 56 409
288 430 288 2 0 43 18 91 40 170 80 250 107 455 154 269 62 328 71 590 91 404
30 646 12 1045 -81 83 -19 164 -39 180 -44 80 -25 270 -91 301 -105 19 -8 49
-21 67 -29 210 -92 427 -212 674 -372 248 -162 586 -412 789 -584 56 -47 123
-103 149 -125 68 -55 331 -280 381 -324 22 -20 56 -50 75 -66 18 -17 97 -86
174 -155 77 -69 171 -152 209 -185 38 -33 94 -83 125 -111 31 -28 94 -84 141
-124 47 -39 105 -91 130 -114 25 -23 133 -118 240 -211 107 -93 197 -172 200
-175 3 -3 41 -37 85 -75 44 -39 138 -122 210 -185 71 -63 146 -129 165 -146
110 -97 284 -258 424 -395 187 -180 308 -292 451 -414 32 -27 63 -55 69 -60 6
-6 70 -60 141 -120 72 -60 175 -147 229 -194 55 -47 114 -97 132 -111 17 -14
73 -60 125 -104 210 -176 216 -181 430 -351 90 -71 209 -164 264 -206 55 -41
154 -117 220 -167 123 -94 482 -356 648 -471 267 -187 906 -588 1117 -703 36
-19 82 -44 102 -56 20 -11 99 -53 175 -93 76 -40 145 -76 153 -80 8 -5 44 -22
80 -38 36 -16 109 -49 162 -75 54 -25 100 -46 102 -46 3 0 31 -12 63 -26 32
-14 67 -30 78 -34 11 -4 36 -15 55 -23 19 -8 71 -29 115 -47 44 -17 89 -35
100 -40 11 -4 36 -13 55 -20 19 -7 44 -16 55 -20 71 -31 154 -60 168 -60 9 0
19 -4 22 -10 3 -5 15 -10 26 -10 10 0 27 -4 37 -9 9 -5 69 -25 132 -44 114
-36 128 -40 205 -58 90 -22 113 -28 170 -44 33 -9 80 -21 105 -26 136 -30 130
-29 275 -58 28 -6 81 -15 119 -21 37 -6 72 -12 76 -15 4 -3 39 -10 76 -16 38
-6 94 -15 124 -20 30 -5 80 -14 110 -19 30 -5 80 -14 110 -19 30 -5 90 -14
133 -20 42 -5 82 -13 87 -16 10 -6 113 -18 315 -36 345 -31 855 -54 1115 -52
292 3 1066 23 1220 31 140 8 129 11 -100 32 -63 6 -152 15 -197 20 -198 24
-262 32 -328 41 -38 5 -115 14 -170 19 -218 23 -304 32 -390 41 -111 11 -262
26 -397 38 -116 11 -415 48 -568 71 -60 8 -96 14 -250 40 -48 8 -247 44 -390
71 -25 4 -66 13 -92 19 -27 5 -67 14 -90 19 -185 38 -511 122 -753 193 -294
86 -663 223 -905 335 -41 19 -113 52 -160 73 -148 66 -411 196 -534 264 -66
36 -121 66 -122 66 -2 0 -29 15 -61 34 -32 18 -83 47 -113 63 -196 107 -360
209 -755 469 -192 126 -511 352 -595 421 -8 7 -73 56 -145 109 -245 183 -489
383 -849 694 -67 58 -143 123 -170 145 -26 22 -53 45 -59 50 -7 6 -88 73 -182
150 -185 152 -209 172 -269 226 -23 20 -54 47 -71 61 -16 14 -91 78 -165 143
-74 64 -148 129 -165 143 -51 43 -180 157 -185 162 -3 3 -81 73 -175 155 -93
82 -188 166 -209 185 -21 19 -44 40 -50 45 -6 6 -47 42 -91 81 -44 39 -145
129 -225 200 -80 71 -161 143 -180 160 -19 17 -62 55 -95 85 -78 69 -183 163
-365 325 -80 70 -161 142 -180 160 -19 17 -136 121 -260 230 -124 109 -230
203 -236 209 -6 5 -42 37 -80 70 -38 33 -91 80 -119 106 -76 68 -214 189 -270
234 -27 22 -76 63 -109 91 -136 112 -389 312 -516 407 -74 55 -151 112 -170
127 -155 119 -546 345 -740 429 -30 12 -68 29 -85 36 -16 8 -79 32 -140 55
-60 23 -118 45 -127 51 -10 5 -25 9 -33 9 -8 0 -23 4 -33 9 -9 5 -57 21 -107
36 -49 15 -101 31 -115 35 -14 4 -43 13 -65 19 -74 20 -210 62 -233 72 -13 5
-34 9 -47 9 -13 0 -27 5 -30 10 -3 6 -15 10 -26 10 -10 0 -27 4 -37 9 -9 5
-48 19 -87 31 -67 21 -89 29 -172 66 l-37 17 23 18 c13 11 32 19 43 19 12 0
37 4 57 9 97 25 259 53 476 82 39 5 104 14 145 20 122 16 222 25 465 42 707
49 962 54 1940 33 603 -13 816 -15 900 -6 61 6 160 15 220 21 61 5 133 14 160
19 28 6 72 13 98 17 80 10 76 22 -56 172 -130 147 -154 239 -143 561 11 355
42 564 126 855 5 17 12 41 15 55 4 14 10 34 15 45 4 11 25 65 45 119 38 99
133 294 155 316 3 3 12 17 20 32 63 113 258 331 375 418 142 107 346 225 505
293 151 64 416 157 570 198 41 12 89 24 105 29 17 4 77 21 135 38 159 45 262
68 665 153 28 5 68 14 90 19 47 11 383 75 470 90 74 13 137 25 240 44 44 8
112 20 150 26 39 6 95 15 125 20 30 5 89 14 130 20 41 6 100 15 130 21 79 13
321 48 415 60 44 6 114 15 155 20 41 5 111 14 155 19 44 4 177 20 295 35 118
14 256 31 305 36 50 5 131 14 180 19 50 6 137 15 195 20 58 5 143 14 190 19
127 14 488 49 630 61 69 6 175 15 235 20 255 22 361 31 560 45 116 9 248 20
295 25 47 5 164 14 260 20 96 6 211 15 255 20 323 38 539 48 1140 55 458 6
843 22 1010 43 81 10 -1004 25 -1840 25 -1668 0 -6208 -23 -6285 -31 -47 -6
-132 -15 -190 -21 -58 -6 -116 -13 -130 -16 -24 -5 -136 -17 -335 -36 -55 -6
-143 -14 -195 -20 -226 -22 -627 -30 -1740 -34 -890 -3 -1243 -7 -1418 -18
-128 -8 -236 -17 -239 -20 -3 -3 2 -20 11 -38 9 -18 16 -36 16 -41 0 -5 19
-50 43 -101 24 -51 50 -107 58 -124 7 -18 17 -33 21 -33 5 0 8 -4 8 -10 0 -5
16 -34 35 -64 19 -30 35 -60 35 -66 0 -5 4 -10 8 -10 4 0 16 -15 26 -32 11
-18 111 -167 222 -330 112 -163 204 -299 204 -302 0 -3 20 -36 43 -73 24 -37
58 -93 74 -123 17 -30 50 -89 75 -130 24 -41 66 -115 93 -165 26 -49 58 -108
70 -130 23 -42 97 -181 173 -325 24 -47 103 -200 174 -340 72 -140 147 -286
168 -325 20 -38 54 -101 75 -140 21 -38 57 -104 80 -145 110 -195 245 -462
245 -486 0 -3 6 -20 14 -37 52 -121 53 -120 -118 -112 -72 4 -156 11 -186 16
-30 6 -98 15 -150 20 -52 6 -131 15 -175 20 -181 21 -457 29 -935 27 -502 -3
-755 7 -845 33 -108 31 -501 231 -513 261 -2 4 -8 8 -13 8 -9 0 -148 88 -159
101 -3 3 -39 30 -81 60 -213 151 -245 174 -259 188 -12 12 -16 62 -22 265 -8
288 -19 374 -63 501 -94 272 -406 575 -702 680 -26 9 -57 21 -68 25 -51 19
-94 30 -118 30 -14 0 -29 5 -32 10 -3 6 -16 10 -27 10 -12 0 -35 4 -52 9 -17
5 -76 17 -131 26 -55 9 -113 19 -130 22 -16 3 -68 9 -115 14 -47 5 -139 14
-205 21 -153 16 -688 16 -865 0 -239 -21 -488 -50 -500 -57 -4 -3 -50 -10
-102 -16 -137 -16 -306 -39 -438 -58 -36 -5 -99 -14 -140 -20 -41 -6 -86 -13
-99 -16 -25 -6 -126 -17 -316 -35 -55 -6 -119 -12 -141 -16 -23 -3 -44 -2 -48
4 -9 15 26 42 245 189 233 156 689 471 794 548 209 153 989 675 1009 675 3 0
36 20 73 43 106 68 463 255 589 310 51 21 259 92 419 141 66 20 134 41 151 47
17 5 48 9 70 9 21 0 66 5 99 10 63 10 224 0 340 -21 122 -23 329 -83 377 -109
10 -6 24 -10 31 -10 7 0 31 -8 53 -19 41 -20 116 -53 174 -78 74 -32 128 -59
225 -113 288 -162 454 -288 690 -525 186 -185 231 -233 300 -320 21 -28 42
-52 45 -55 3 -3 17 -21 30 -40 13 -19 27 -37 30 -40 19 -17 145 -193 225 -313
51 -78 138 -209 194 -292 56 -82 110 -163 120 -180 10 -16 51 -81 90 -143 39
-62 71 -115 71 -118 0 -3 13 -24 28 -47 16 -23 57 -89 92 -147 120 -197 357
-559 418 -635 4 -5 18 -26 32 -45 13 -19 44 -60 69 -90 25 -30 47 -57 48 -59
2 -2 6 -1 10 3 7 6 -6 49 -34 116 -8 19 -18 44 -23 55 -4 11 -13 34 -20 50 -7
17 -16 39 -21 50 -9 22 -108 232 -160 340 -18 39 -57 112 -86 163 -29 52 -53
95 -53 97 0 2 -14 28 -31 57 -18 29 -52 91 -77 138 -24 47 -56 105 -70 130
-14 25 -39 72 -57 105 -30 56 -44 80 -96 173 -12 20 -33 57 -47 82 -51 91 -60
107 -106 183 -25 43 -46 80 -46 83 0 20 -333 508 -470 689 -129 170 -199 304
-236 455 -24 99 -22 104 44 124 149 44 265 63 452 75 80 5 942 12 1915 15
1075 3 1796 9 1835 15 64 10 205 23 470 42 136 10 255 20 450 38 58 5 164 14
235 20 72 5 182 15 245 22 86 9 430 12 1355 11 944 -2 1350 1 1700 13 253 9
494 19 535 23 l75 7 -120 12 c-301 31 -782 33 -6310 19 l-3371 -9 -89 28 c-50
16 -102 36 -117 47 -14 10 -29 18 -32 18 -13 0 -93 56 -171 119 -110 90 -118
98 -113 113 6 13 187 58 313 77 263 39 565 51 1260 51 347 1 642 5 685 11 41
5 118 14 170 20 52 6 131 15 175 20 44 5 121 14 170 20 50 6 124 14 165 19 41
5 134 13 205 19 72 5 180 14 240 20 68 6 1010 13 2470 17 2411 6 3501 16 3705
34 63 5 160 14 215 20 55 5 420 14 810 19 938 12 1819 30 1875 37 150 20 598
42 1023 50 l327 6 0 28 0 28 -737 6 c-1188 10 -10053 15 -10113 6z m-10457
-2697 c19 -11 -5 -42 -68 -88 -22 -17 -47 -37 -55 -45 -8 -9 -33 -29 -55 -46
-22 -16 -49 -37 -60 -47 -11 -10 -56 -44 -100 -75 -44 -31 -86 -62 -93 -69 -7
-7 -16 -13 -20 -13 -4 0 -23 -14 -42 -30 -19 -16 -40 -30 -47 -30 -6 0 -13 -4
-15 -8 -4 -11 -176 -122 -188 -122 -6 0 -10 -4 -10 -8 0 -5 -15 -16 -32 -25
-33 -17 -41 -22 -113 -68 -22 -14 -47 -29 -55 -33 -8 -3 -42 -22 -75 -41 -33
-19 -78 -44 -100 -55 -22 -11 -53 -29 -70 -39 -31 -19 -32 -19 -110 14 -288
121 -472 233 -657 399 -133 119 -142 130 -129 154 11 20 157 101 233 128 103
37 145 44 528 84 52 6 131 15 175 20 44 6 103 12 130 14 28 2 100 9 160 16
177 19 445 28 660 23 110 -3 203 -7 208 -10z m5612 -244 c174 -8 254 -15 264
-24 11 -11 8 -14 -18 -20 -17 -3 -33 -11 -36 -16 -4 -5 -16 -10 -28 -11 -12 0
12 -5 53 -9 279 -30 477 -110 650 -261 39 -34 110 -157 110 -190 0 -9 5 -20
10 -23 6 -3 10 -17 10 -30 0 -13 5 -27 10 -30 6 -3 10 -19 10 -35 0 -16 4 -31
9 -34 5 -3 11 -20 14 -38 5 -37 44 -182 57 -213 4 -11 14 -40 21 -65 28 -96
92 -175 229 -282 41 -32 80 -61 85 -66 15 -11 173 -125 200 -142 71 -48 111
-75 115 -80 3 -3 37 -28 75 -55 135 -95 290 -235 283 -257 -3 -7 -29 -18 -59
-25 -70 -15 -411 -16 -458 -2 -93 28 -258 125 -451 264 -51 37 -96 64 -190
113 -71 37 -56 36 -240 13 -131 -17 -256 -42 -308 -62 -13 -5 -38 -9 -57 -9
-19 0 -37 -4 -40 -10 -3 -5 -25 -10 -49 -10 -23 0 -46 -4 -51 -9 -10 -9 -33
-13 -185 -30 -47 -6 -109 -15 -139 -21 -74 -14 -2389 -13 -2451 1 -24 5 -83
14 -130 20 -160 18 -175 20 -195 29 -11 5 -36 11 -55 14 -48 6 -91 16 -115 25
-11 5 -47 16 -80 26 -33 10 -80 27 -105 38 -25 10 -54 23 -65 27 -11 5 -49 21
-84 36 l-64 29 7 110 c23 388 179 732 411 908 138 104 323 174 690 261 274 64
261 61 440 89 290 45 337 49 685 54 190 3 347 7 349 9 9 9 632 3 866 -7z
m-7740 -1018 c323 -24 704 -98 1001 -196 126 -42 313 -129 452 -212 53 -31
113 -67 133 -78 64 -36 273 -196 404 -309 178 -153 811 -784 955 -951 52 -60
99 -115 105 -121 27 -28 183 -223 239 -299 17 -22 32 -42 35 -45 4 -3 31 -39
62 -80 193 -261 262 -355 329 -451 41 -59 104 -148 140 -198 175 -246 263
-372 388 -551 75 -107 141 -200 147 -206 5 -6 35 -46 65 -88 30 -42 58 -76 62
-76 15 0 -91 323 -167 510 -73 180 -361 751 -484 958 -17 29 -31 55 -31 57 0
2 -25 46 -56 97 -31 51 -71 118 -88 148 -39 67 -283 435 -300 453 -7 6 -37 48
-68 92 -31 44 -65 89 -75 100 -10 11 -25 30 -33 41 -107 152 -491 560 -709
752 -42 37 -105 94 -141 128 -36 33 -90 83 -120 110 -84 74 -308 303 -352 358
-37 47 -39 51 -22 63 39 29 460 8 769 -37 154 -23 941 -185 1047 -216 10 -3
25 -22 34 -42 8 -20 20 -45 25 -54 5 -10 9 -26 9 -36 0 -10 4 -22 8 -28 5 -5
16 -28 25 -51 15 -37 34 -82 70 -163 27 -60 91 -142 132 -170 114 -78 360
-156 650 -205 230 -38 621 -55 1281 -55 474 0 796 -13 1024 -40 207 -26 260
-33 330 -47 41 -9 95 -19 120 -24 63 -11 108 -28 114 -44 4 -12 -62 -65 -82
-65 -4 0 -14 -6 -20 -12 -19 -19 -162 -95 -382 -204 -564 -278 -534 -262 -726
-389 -267 -177 -476 -361 -701 -616 -114 -128 -323 -403 -323 -424 0 -3 -24
-42 -53 -88 -72 -112 -182 -337 -237 -482 -12 -33 -26 -69 -30 -80 -12 -29
-26 -74 -40 -125 -7 -25 -17 -58 -22 -75 -10 -29 -23 -88 -34 -150 -3 -16 -9
-39 -14 -50 -5 -11 -11 -36 -15 -55 -3 -19 -8 -48 -11 -65 -3 -16 -9 -39 -14
-50 -5 -11 -25 -67 -44 -125 -60 -180 -140 -318 -311 -535 -96 -122 -198 -261
-274 -373 -60 -88 -221 -342 -221 -348 0 -1 -20 -37 -45 -79 -56 -94 -182
-343 -225 -445 -18 -41 -40 -93 -50 -115 -10 -23 -28 -70 -41 -105 -12 -36
-25 -69 -30 -74 -5 -6 -9 -20 -9 -32 0 -13 -4 -26 -10 -29 -5 -3 -10 -15 -10
-26 0 -10 -4 -27 -9 -37 -11 -19 -53 -136 -71 -197 -7 -22 -16 -50 -21 -63 -5
-13 -9 -34 -9 -47 0 -13 -4 -27 -10 -30 -5 -3 -10 -16 -10 -27 0 -12 -4 -35
-9 -52 -21 -72 -40 -143 -46 -171 -21 -103 -27 -135 -31 -175 -3 -25 -9 -54
-14 -65 -5 -11 -11 -40 -14 -65 -13 -124 -25 -211 -32 -222 -4 -7 -12 -49 -16
-93 -5 -44 -13 -116 -19 -160 -5 -44 -12 -114 -15 -155 -2 -41 -9 -84 -14 -95
-5 -11 -11 -54 -14 -95 -5 -78 -19 -166 -28 -175 -6 -6 -191 9 -296 24 -113
16 -216 102 -575 481 -140 148 -210 209 -256 223 -161 51 -353 77 -771 106
-150 11 -339 30 -360 36 -8 3 -58 10 -110 16 -52 6 -120 15 -150 19 -30 5 -91
14 -135 20 -44 6 -105 15 -135 19 -30 5 -93 14 -140 20 -47 6 -92 14 -100 17
-15 5 -162 22 -284 31 l-69 5 8 -53 c32 -227 46 -264 161 -405 55 -68 334
-349 364 -368 14 -8 39 -28 55 -43 17 -16 62 -51 100 -78 39 -27 72 -52 75
-55 3 -4 38 -29 79 -56 41 -27 97 -64 125 -83 28 -19 65 -42 82 -52 17 -9 42
-23 55 -31 13 -7 26 -16 29 -19 6 -6 678 -340 805 -399 124 -58 211 -98 270
-125 28 -13 82 -37 120 -55 39 -18 88 -40 110 -50 22 -10 69 -31 105 -48 36
-16 82 -37 103 -46 82 -36 115 -50 172 -76 33 -15 76 -34 95 -43 19 -8 67 -29
105 -46 39 -18 79 -36 90 -40 11 -5 91 -43 178 -86 136 -67 167 -87 227 -146
39 -37 70 -73 70 -80 0 -7 16 -46 36 -88 20 -42 41 -86 45 -98 5 -13 13 -33
19 -45 5 -13 23 -63 39 -111 16 -49 32 -91 35 -94 3 -4 6 -17 6 -29 0 -13 5
-26 10 -29 6 -3 10 -15 10 -26 0 -17 19 -86 60 -215 6 -17 10 -40 10 -52 0
-11 5 -24 10 -27 6 -3 10 -19 10 -35 0 -16 4 -31 9 -34 5 -3 11 -20 14 -38 3
-18 9 -45 12 -60 7 -25 5 -28 -19 -28 -14 0 -119 41 -233 91 -115 50 -271 118
-348 151 -77 33 -158 68 -180 78 -22 10 -114 51 -205 90 -91 39 -183 80 -205
90 -52 23 -278 123 -380 167 -119 53 -146 65 -308 137 -81 36 -149 66 -151 66
-2 0 -37 15 -78 34 -40 18 -113 52 -163 74 -49 22 -120 54 -158 71 -37 17 -69
31 -71 31 -2 0 -50 22 -107 49 -57 26 -187 85 -289 131 -102 45 -222 100 -268
121 -45 22 -84 39 -86 39 -2 0 -59 26 -127 59 -68 32 -149 70 -179 84 -30 13
-100 46 -155 72 -55 26 -127 60 -160 75 -33 15 -103 48 -155 73 -52 24 -126
59 -165 77 -136 63 -387 191 -438 223 -29 18 -59 36 -67 39 -53 21 -270 192
-404 318 -196 185 -402 497 -475 720 -39 118 -41 126 -41 153 0 14 -4 37 -10
52 -12 32 -28 193 -42 430 -6 99 -14 234 -19 300 -8 117 -21 333 -37 625 -5
80 -11 152 -15 160 -3 8 -11 71 -18 140 -6 69 -16 166 -21 215 -5 50 -13 295
-18 545 -13 586 -27 813 -65 1025 -19 108 -33 198 -45 285 -5 36 -14 94 -20
130 -6 36 -15 92 -20 125 -4 33 -16 96 -25 140 -30 150 -36 180 -42 228 -3 26
-10 50 -14 53 -5 3 -9 23 -9 44 0 21 -4 42 -10 45 -5 3 -10 17 -10 31 0 14 -9
53 -19 87 -11 34 -27 89 -36 122 -18 63 -32 107 -45 140 -4 11 -14 40 -21 65
-7 25 -28 80 -46 123 -18 43 -33 85 -33 93 0 8 -4 14 -10 14 -5 0 -10 7 -10
15 0 26 -149 312 -188 360 -4 6 -22 30 -39 55 -32 47 -194 210 -209 210 -4 0
-17 9 -28 19 -24 22 -170 99 -236 124 -73 27 -223 23 -329 -9 -117 -36 -139
-44 -256 -99 -227 -105 -243 -111 -252 -89 -6 17 2 34 64 142 24 41 43 78 43
83 0 5 5 9 10 9 6 0 10 4 10 10 0 18 201 325 230 350 3 3 15 17 25 31 91 118
288 306 446 425 74 57 346 224 363 224 2 0 43 18 90 40 121 57 249 103 411
148 239 67 257 71 565 117 58 9 173 27 255 40 83 13 195 28 250 35 55 6 132
15 170 20 39 5 142 14 230 20 88 6 212 15 275 20 138 10 488 5 695 -9z m7425
-2602 c97 -13 120 -28 120 -75 0 -18 5 -36 10 -39 6 -3 10 -23 10 -43 0 -20 4
-44 9 -51 15 -24 -6 -51 -39 -51 -16 0 -32 -4 -35 -10 -3 -5 -19 -10 -34 -10
-15 0 -41 -4 -57 -9 -16 -5 -56 -17 -89 -26 -33 -10 -69 -21 -80 -25 -11 -4
-69 -24 -130 -43 -115 -38 -216 -72 -250 -87 -11 -4 -47 -18 -80 -30 -33 -13
-73 -29 -90 -36 -209 -87 -560 -211 -678 -238 -39 -9 -43 11 -16 70 60 127
196 313 300 410 145 135 347 243 529 285 91 21 466 26 600 8z m-11017 -72 c30
-94 22 -357 -15 -502 -5 -22 -14 -60 -18 -85 -5 -25 -14 -67 -20 -95 -6 -27
-13 -63 -16 -80 -3 -16 -9 -39 -14 -50 -5 -11 -11 -36 -14 -55 -3 -19 -12 -64
-21 -100 -24 -99 -36 -160 -41 -215 -3 -27 -9 -59 -14 -70 -5 -11 -12 -42 -15
-70 -3 -27 -10 -81 -15 -120 -23 -174 -43 -533 -51 -910 -4 -225 -13 -466 -19
-535 -14 -163 -14 -323 0 -545 6 -99 15 -355 20 -570 4 -214 10 -406 14 -425
4 -19 11 -96 17 -170 21 -262 67 -588 96 -675 6 -16 16 -55 22 -85 13 -62 28
-121 42 -166 5 -17 9 -40 9 -52 0 -11 5 -24 10 -27 6 -3 10 -15 10 -26 0 -20
46 -171 61 -201 5 -10 9 -29 9 -42 0 -14 5 -28 10 -31 6 -3 10 -17 10 -30 0
-13 5 -27 10 -30 6 -3 10 -16 10 -29 0 -12 4 -26 9 -31 11 -13 41 -109 41
-132 -1 -21 -162 -193 -182 -193 -12 0 -158 199 -158 216 0 4 -6 15 -14 23
-44 51 -111 217 -147 364 -5 20 -14 56 -20 80 -11 45 -23 100 -38 170 -5 23
-17 74 -26 112 -9 39 -21 97 -27 130 -5 33 -14 85 -19 115 -10 55 -21 142 -38
295 -5 44 -14 123 -20 175 -25 215 -31 298 -38 565 -11 405 -8 1678 5 1970 13
313 29 521 42 559 6 16 10 66 10 110 0 45 4 86 9 91 5 6 12 42 15 80 10 127
35 298 61 415 29 129 36 164 42 205 3 22 9 44 14 49 5 6 9 19 9 30 0 57 120
339 183 431 47 68 175 215 187 215 4 0 14 -24 23 -53z m12062 -946 c22 -10 52
-31 66 -47 39 -43 139 -213 139 -238 0 -15 -55 -30 -140 -38 -52 -4 -129 -12
-170 -17 -41 -6 -107 -14 -146 -19 -39 -5 -76 -12 -82 -16 -6 -3 -44 -11 -84
-17 -197 -29 -395 -70 -520 -109 -34 -11 -81 -25 -103 -31 -22 -6 -49 -15 -60
-19 -11 -4 -38 -13 -60 -20 -96 -29 -301 -118 -433 -186 -230 -120 -543 -335
-758 -521 -99 -85 -376 -361 -429 -427 -22 -27 -45 -54 -50 -60 -36 -38 -175
-221 -254 -335 -82 -118 -221 -343 -221 -358 0 -2 -9 -17 -19 -31 -20 -29 -91
-168 -139 -272 -63 -138 -73 -161 -113 -267 -22 -59 -44 -117 -49 -128 -17
-42 -65 -195 -91 -290 -6 -22 -15 -48 -20 -57 -5 -10 -9 -28 -9 -41 0 -13 -4
-27 -9 -32 -5 -6 -11 -28 -14 -50 -3 -22 -13 -69 -22 -105 -8 -36 -18 -81 -21
-100 -3 -19 -10 -44 -14 -55 -5 -11 -12 -45 -15 -75 -3 -30 -9 -86 -15 -125
-43 -319 -55 -577 -41 -826 18 -317 25 -389 60 -614 17 -112 30 -180 46 -240
28 -105 36 -139 42 -173 3 -18 9 -35 14 -38 5 -3 9 -16 9 -30 0 -13 4 -32 9
-42 4 -9 16 -39 26 -67 53 -153 68 -192 86 -227 5 -10 9 -22 9 -27 0 -5 13
-38 29 -73 16 -35 39 -85 51 -113 54 -123 135 -282 208 -407 12 -21 32 -55 43
-75 12 -21 41 -69 65 -106 24 -37 44 -70 44 -73 0 -5 198 -273 210 -284 3 -3
28 -32 55 -65 28 -33 67 -79 89 -102 21 -23 46 -53 54 -65 25 -37 241 -241
331 -314 13 -10 38 -31 55 -45 17 -14 47 -36 66 -49 19 -14 40 -29 46 -35 6
-6 37 -30 70 -53 203 -146 197 -142 374 -246 65 -38 372 -186 385 -186 4 0 21
-6 38 -14 18 -7 48 -19 67 -26 19 -7 44 -16 55 -21 34 -14 145 -48 181 -55 19
-3 37 -10 40 -15 3 -5 18 -9 34 -9 16 0 32 -5 35 -10 3 -5 21 -10 40 -10 19 0
37 -5 40 -10 3 -6 17 -10 30 -10 24 0 64 -8 175 -36 30 -7 78 -16 105 -19 28
-4 82 -11 120 -16 288 -40 619 -40 860 0 119 20 131 22 180 36 28 7 70 19 95
25 25 6 59 16 76 21 17 5 40 9 52 9 11 0 24 5 27 10 3 6 17 10 30 10 13 0 34
4 47 9 13 5 50 17 83 26 33 9 69 21 80 25 11 5 31 11 45 14 14 2 43 10 65 16
22 6 51 14 65 16 14 3 34 9 45 14 39 15 132 40 151 40 11 0 24 4 29 9 10 9 71
20 134 24 33 2 34 1 62 -73 16 -41 33 -84 38 -95 30 -66 33 -84 19 -99 -14
-14 -240 -126 -253 -126 -4 0 -21 -6 -38 -14 -115 -50 -403 -146 -440 -146
-14 0 -28 -4 -31 -9 -3 -4 -20 -11 -38 -14 -18 -4 -62 -14 -98 -22 -99 -24
-260 -50 -400 -65 -47 -5 -123 -14 -170 -19 -109 -12 -549 -12 -660 0 -286 32
-408 52 -580 94 -58 15 -121 30 -140 35 -19 5 -52 13 -72 19 -21 6 -53 15 -70
20 -48 13 -160 50 -183 61 -11 5 -56 22 -101 39 -291 109 -792 389 -1024 573
-174 138 -254 210 -441 397 -321 322 -527 597 -767 1028 -269 481 -474 1117
-538 1663 -81 693 -16 1425 182 2045 40 126 172 479 216 579 122 277 297 591
447 800 31 43 65 91 76 106 95 132 329 405 445 520 127 124 240 228 345 315
33 28 62 52 65 55 28 30 491 360 505 360 2 0 47 25 100 55 54 30 99 55 100 55
2 0 45 20 96 43 141 66 176 81 279 122 52 20 104 41 115 46 11 4 40 15 65 23
25 8 79 27 120 42 41 14 90 30 108 35 17 5 47 13 65 18 93 27 309 80 382 93
28 5 75 13 105 19 271 48 443 59 505 30z m-210 -645 c110 -52 221 -216 328
-486 21 -52 43 -103 48 -112 5 -10 9 -25 9 -33 0 -8 4 -23 9 -33 5 -9 14 -37
21 -62 6 -25 17 -65 25 -90 17 -60 51 -232 60 -310 23 -194 28 -323 29 -660 0
-442 -12 -776 -28 -789 -6 -5 -78 -12 -161 -15 -82 -3 -216 -9 -297 -12 -81
-4 -158 -4 -172 0 -29 7 -60 65 -304 552 -135 269 -258 492 -302 547 -5 7 -46
61 -91 121 -45 60 -97 126 -116 147 -19 20 -45 52 -59 70 -13 18 -54 64 -91
103 -38 39 -84 89 -102 111 -19 22 -53 61 -77 87 -80 85 -274 323 -274 335 0
11 120 106 175 140 11 7 52 31 90 55 84 51 202 112 270 140 28 11 65 27 83 35
41 18 224 82 272 95 142 39 434 85 545 87 44 1 73 -6 110 -23z m-2480 -2160
c174 -24 284 -43 373 -65 23 -6 59 -15 80 -20 42 -10 157 -47 187 -61 11 -5
38 -14 60 -21 22 -7 44 -17 50 -21 5 -4 15 -8 21 -8 15 0 295 -136 364 -176
38 -22 191 -122 265 -174 76 -53 202 -159 305 -257 l64 -61 -16 -34 c-10 -18
-32 -58 -49 -88 -18 -30 -45 -80 -62 -110 -16 -30 -46 -82 -65 -115 -35 -60
-47 -81 -94 -165 -14 -25 -34 -60 -44 -77 l-19 -33 -390 7 c-275 4 -421 2
-495 -6 -199 -23 -265 -31 -310 -40 -25 -5 -63 -12 -85 -16 -22 -3 -56 -10
-75 -15 -19 -5 -62 -16 -95 -24 -156 -37 -363 -97 -575 -166 -49 -16 -92 -29
-247 -76 -66 -20 -73 -3 -73 171 2 460 79 875 235 1257 101 245 171 348 270
394 46 22 60 24 175 20 69 -2 179 -11 245 -20z m3768 -561 c4 -28 12 -72 16
-100 32 -177 54 -451 49 -620 -3 -114 -5 -130 -21 -133 -14 -3 -37 37 -113
195 -117 243 -110 228 -125 283 -7 25 -16 49 -21 55 -17 19 -9 134 13 178 20
39 114 156 149 184 28 23 45 10 53 -42z m-2347 -1787 c158 -162 216 -253 264
-414 15 -52 5 -127 -28 -209 -23 -54 -134 -277 -172 -342 -74 -129 -94 -167
-168 -318 -44 -88 -86 -176 -95 -195 -32 -74 -49 -117 -63 -160 -8 -25 -19
-54 -23 -65 -5 -11 -30 -87 -56 -170 -26 -82 -51 -158 -56 -167 -5 -10 -9 -27
-9 -37 0 -11 -4 -30 -9 -43 -5 -13 -21 -63 -36 -113 -15 -49 -31 -101 -35
-115 -4 -14 -13 -45 -20 -70 -7 -25 -16 -56 -20 -70 -62 -200 -84 -268 -91
-285 -4 -11 -13 -38 -20 -60 -19 -58 -30 -68 -63 -55 -44 16 -233 148 -333
232 -121 101 -355 336 -438 438 -59 74 -159 215 -204 290 -131 216 -123 377
34 655 83 147 193 305 290 415 212 241 349 368 589 548 61 45 116 86 122 91
22 18 276 181 322 207 147 84 207 112 222 104 8 -5 51 -46 96 -92z m2458 45
c4 -16 11 -48 16 -73 5 -25 16 -79 25 -120 27 -130 44 -273 61 -506 8 -117 3
-119 -119 -58 -223 112 -357 196 -357 222 0 24 134 258 242 425 94 143 119
164 132 110z m-978 -950 c22 -20 124 -178 171 -263 17 -30 39 -71 51 -91 11
-20 51 -95 87 -165 70 -133 100 -190 166 -307 22 -38 39 -71 39 -73 0 -2 38
-63 85 -134 88 -135 212 -307 306 -421 30 -37 68 -83 84 -104 17 -21 52 -66
79 -99 82 -103 155 -221 176 -282 14 -41 20 -86 20 -149 0 -146 -31 -181 -250
-286 -58 -28 -115 -55 -127 -60 -28 -11 -66 -26 -95 -38 -13 -5 -41 -16 -63
-25 -63 -25 -238 -67 -379 -91 -119 -20 -356 -20 -445 1 -62 14 -73 20 -108
62 -133 159 -271 445 -335 692 -11 41 -24 91 -29 110 -109 407 -136 995 -69
1500 20 155 29 202 40 215 10 12 52 15 204 18 105 1 232 3 282 5 75 2 94 -1
110 -15z m2291 -3564 c27 -6 74 -17 105 -25 32 -8 69 -14 82 -14 14 0 28 -4
31 -10 3 -5 21 -10 40 -10 19 0 37 -4 40 -10 3 -5 21 -10 40 -10 19 0 36 -4
39 -9 3 -5 20 -11 38 -14 61 -10 133 -29 143 -38 5 -5 24 -9 41 -9 18 0 36 -4
39 -10 3 -5 21 -10 40 -10 19 0 37 -4 40 -10 3 -5 19 -10 36 -10 16 0 37 -4
47 -9 9 -5 55 -22 102 -37 47 -15 89 -31 95 -36 5 -4 18 -8 30 -8 12 0 25 -4
30 -8 6 -4 28 -14 50 -22 22 -7 69 -26 104 -42 62 -28 63 -29 46 -48 -14 -16
-35 -20 -129 -24 -61 -2 -183 -9 -271 -15 -180 -11 -925 -4 -1020 10 -33 5
-94 9 -135 9 -42 0 -80 4 -85 9 -6 5 -37 12 -70 15 -71 6 -164 21 -220 34 -22
6 -66 16 -98 23 -89 20 -90 36 -4 98 97 70 256 174 287 187 14 6 36 16 50 23
67 30 121 39 252 40 76 1 159 -4 185 -10z"/>
<path d="M4150 13570 c-19 -4 -80 -14 -135 -20 -117 -15 -182 -25 -247 -39
-27 -6 -68 -15 -93 -19 -26 -5 -50 -13 -55 -18 -11 -11 14 -274 40 -416 5 -32
14 -82 19 -110 5 -29 21 -107 36 -173 14 -66 31 -142 36 -170 5 -27 14 -72 19
-100 22 -102 30 -145 65 -360 31 -181 39 -245 85 -649 6 -55 13 -103 16 -108
3 -5 10 -45 15 -91 15 -121 26 -202 39 -292 6 -44 15 -111 20 -150 21 -190 31
-262 36 -278 3 -10 10 -58 15 -105 5 -48 14 -125 20 -172 6 -47 14 -119 19
-160 5 -41 14 -106 19 -145 5 -38 14 -108 20 -155 6 -47 14 -92 17 -100 3 -8
10 -51 16 -95 5 -44 14 -109 19 -145 5 -36 14 -94 19 -130 19 -138 59 -343 81
-416 5 -17 9 -42 9 -57 0 -14 4 -28 9 -31 5 -3 11 -23 14 -43 6 -48 17 -86 57
-198 34 -97 37 -105 69 -177 12 -26 21 -50 21 -53 0 -12 91 -143 121 -176 41
-43 122 -99 143 -99 8 0 17 -4 20 -9 3 -4 22 -11 43 -14 21 -4 70 -13 108 -22
82 -18 174 -34 265 -45 36 -5 101 -13 145 -19 156 -20 231 -30 320 -41 50 -6
97 -13 106 -16 22 -6 194 -24 339 -34 63 -4 134 -11 158 -15 37 -7 42 -5 42
11 0 43 -55 231 -165 560 -124 374 -154 476 -187 643 -22 105 -22 127 -29
1606 -7 1586 -6 1584 -54 1795 -33 148 -56 209 -93 245 -42 40 -124 85 -157
85 -13 0 -26 4 -29 9 -6 9 -16 11 -131 30 -149 24 -408 32 -802 25 l-403 -7 0
26 c0 14 19 54 43 89 l42 63 75 6 c156 13 840 19 1005 10 224 -13 334 -43 459
-126 99 -65 152 -133 196 -250 28 -74 30 -163 30 -1673 0 -930 4 -1568 9
-1601 6 -31 15 -90 22 -131 23 -149 29 -186 39 -240 6 -30 13 -71 16 -90 3
-19 9 -44 13 -55 5 -11 14 -38 20 -60 6 -22 22 -75 36 -119 14 -43 25 -85 25
-92 0 -8 4 -22 9 -32 13 -26 26 -58 69 -172 32 -85 41 -100 46 -80 17 77 26
400 26 948 0 566 2 642 25 927 34 426 49 1090 42 1885 -6 624 -6 637 -31 774
-32 176 -52 240 -113 361 -57 111 -123 174 -223 212 -239 89 -288 93 -1180 92
-410 -1 -761 -5 -780 -9z"/>
<path d="M28260 18974 l0 -27 272 6 c149 4 442 7 651 7 209 0 378 2 375 5 -14
15 -369 29 -805 32 l-493 4 0 -27z"/>
<path d="M19135 12110 c-22 -5 -62 -9 -89 -9 -74 -1 -156 -31 -208 -76 -30
-25 -108 -141 -108 -159 0 -6 -11 -33 -25 -60 -14 -27 -25 -60 -25 -73 0 -36
408 -440 655 -648 110 -93 214 -181 230 -196 66 -59 819 -711 950 -823 77 -66
142 -123 145 -126 42 -46 532 -451 807 -666 433 -339 812 -606 1078 -759 66
-38 131 -76 145 -85 60 -41 515 -273 710 -363 69 -32 133 -63 142 -68 10 -5
22 -9 27 -9 5 0 42 -15 83 -34 40 -18 129 -54 198 -80 69 -26 133 -52 142 -57
10 -5 25 -9 33 -9 8 0 23 -4 33 -9 25 -14 136 -54 222 -81 41 -13 121 -38 177
-57 104 -34 185 -57 258 -74 72 -18 109 -27 185 -46 79 -21 131 -32 290 -63
25 -5 59 -11 75 -15 169 -33 353 -68 400 -76 66 -10 178 -29 240 -39 28 -5 75
-13 106 -19 32 -5 65 -12 75 -15 99 -30 764 -72 764 -48 0 13 -19 26 -60 41
-19 7 -44 17 -55 21 -48 21 -156 59 -225 80 -41 13 -100 31 -130 40 -30 10
-82 26 -115 35 -33 9 -71 21 -85 25 -14 4 -43 13 -65 19 -22 6 -103 29 -180
52 -77 22 -150 43 -162 46 -52 12 -38 46 61 153 150 160 216 249 216 290 0 10
5 22 10 25 22 14 4 164 -22 191 -4 3 -69 -34 -145 -84 -149 -97 -282 -167
-378 -200 -157 -53 -791 -55 -1066 -4 -113 21 -302 74 -364 102 -11 5 -45 19
-75 30 -30 12 -78 32 -108 46 -29 13 -54 24 -56 24 -12 0 -204 115 -286 170
-150 103 -340 310 -380 416 -6 16 -18 43 -26 61 -26 54 -11 285 31 473 9 41
20 98 24 125 3 28 10 55 14 61 4 7 -1 15 -11 19 -31 13 -266 52 -622 104 -36
5 -85 14 -110 19 -25 6 -72 16 -105 22 -33 7 -70 16 -83 21 -13 5 -36 9 -52 9
-16 0 -32 5 -35 10 -3 6 -16 10 -28 10 -26 0 -102 25 -242 80 -65 25 -312 151
-380 194 -250 156 -365 284 -440 487 -24 64 -28 90 -29 194 -1 137 11 181 75
276 89 132 325 249 504 249 33 0 89 5 123 10 35 6 114 15 175 20 124 11 236
25 312 39 28 6 70 14 95 19 71 13 93 34 48 45 -13 3 -39 10 -58 15 -163 46
-216 56 -375 73 -49 5 -171 14 -270 20 -205 12 -307 19 -595 42 -113 10 -349
22 -525 27 -423 14 -572 30 -760 82 -57 16 -71 42 -32 57 89 34 1122 53 1419
26 188 -17 428 -48 573 -74 28 -5 68 -12 90 -16 22 -3 58 -10 80 -15 22 -5 74
-16 115 -25 41 -9 91 -20 110 -25 19 -4 60 -13 90 -20 30 -6 73 -15 95 -20 22
-5 76 -16 120 -25 168 -35 394 -110 565 -186 196 -87 585 -300 808 -443 203
-129 538 -313 697 -381 22 -9 48 -21 58 -26 26 -14 21 -3 -27 60 -73 94 -291
306 -411 399 -343 265 -673 497 -870 613 -110 65 -375 196 -470 234 -38 15
-78 31 -87 36 -10 5 -25 9 -33 9 -8 0 -23 4 -33 9 -28 15 -165 51 -327 86 -34
7 -118 20 -220 34 -38 5 -77 11 -85 15 -8 3 -53 11 -100 17 -47 6 -112 16
-145 21 -139 21 -299 41 -454 57 -57 6 -111 13 -120 15 -16 6 -153 20 -351 37
-118 11 -345 25 -620 39 -260 13 -1087 21 -1135 10z"/>
<path d="M18640 7550 c-8 -5 -24 -10 -35 -10 -32 -1 -111 -65 -139 -113 -40
-68 -73 -174 -82 -262 -15 -155 -8 -472 16 -670 33 -281 49 -487 61 -795 14
-369 44 -678 84 -875 10 -44 21 -102 26 -130 18 -101 68 -296 103 -400 13 -38
29 -90 37 -115 11 -40 38 -107 86 -220 91 -213 209 -387 383 -561 192 -192
340 -289 700 -457 58 -26 121 -54 140 -62 19 -7 39 -17 44 -22 6 -4 16 -8 23
-8 7 0 32 -9 56 -19 46 -21 209 -82 272 -102 22 -7 44 -17 49 -21 6 -4 18 -8
28 -8 10 0 26 -4 36 -10 18 -10 135 -49 212 -70 25 -6 53 -16 62 -21 10 -5 25
-9 33 -9 14 0 89 -22 211 -60 17 -6 40 -10 52 -10 11 0 24 -4 27 -10 3 -6 21
-10 40 -10 19 0 36 -4 39 -9 3 -4 22 -11 43 -14 21 -3 70 -13 108 -23 39 -9
89 -20 113 -25 23 -5 63 -14 90 -19 77 -18 168 -35 295 -58 31 -6 61 -13 65
-16 5 -3 37 -10 73 -16 35 -6 89 -16 119 -21 195 -35 241 -43 350 -58 124 -17
510 -26 510 -12 0 6 -8 14 -17 17 -10 4 -36 14 -58 24 -51 23 -238 88 -435
151 -85 28 -164 54 -175 59 -11 4 -132 45 -270 90 -137 45 -267 90 -289 101
-22 10 -43 19 -48 19 -17 0 -244 105 -436 202 -438 221 -783 533 -1058 955
-75 114 -214 379 -214 406 0 7 -4 17 -9 22 -4 6 -24 53 -43 105 -50 132 -49
131 -59 168 -5 17 -14 49 -20 70 -6 20 -14 53 -19 72 -5 19 -16 62 -25 95 -27
102 -63 287 -84 430 -4 33 -13 92 -19 130 -23 147 -32 299 -32 547 0 150 4
268 10 283 9 25 14 27 48 21 20 -4 62 -11 92 -15 114 -18 167 -40 212 -88 57
-59 68 -113 108 -498 5 -49 13 -126 19 -170 5 -44 14 -125 20 -180 7 -55 14
-107 17 -115 3 -8 9 -44 15 -80 5 -36 14 -87 19 -115 5 -27 12 -66 15 -85 3
-19 10 -53 15 -75 5 -22 16 -71 25 -110 9 -38 20 -81 24 -95 5 -14 14 -45 21
-70 6 -25 16 -53 21 -62 5 -10 9 -26 9 -36 0 -10 4 -22 8 -27 4 -6 14 -28 21
-50 28 -82 129 -283 193 -380 95 -146 305 -346 583 -554 299 -224 488 -342
785 -489 153 -76 195 -95 275 -127 22 -9 49 -20 60 -24 11 -5 36 -14 55 -21
19 -7 44 -15 55 -20 11 -4 36 -12 55 -18 149 -44 220 -65 253 -73 20 -5 54
-13 75 -18 63 -16 302 -54 438 -70 118 -14 354 -14 354 -1 0 6 -32 50 -70 98
-250 310 -355 461 -437 632 -25 52 -50 106 -56 120 -5 14 -12 32 -16 40 -6 13
-38 113 -72 226 -12 39 -12 228 0 268 44 148 78 227 118 272 35 38 118 96 164
113 19 7 43 17 54 21 76 31 222 45 430 41 110 -3 517 -5 905 -5 712 0 915 7
1150 39 63 9 158 21 210 26 159 16 416 42 585 58 55 6 161 17 235 26 74 9 173
21 220 26 118 12 234 27 305 38 153 23 203 32 235 41 19 6 53 10 75 11 l40 1
-32 14 c-64 28 -416 44 -962 44 -514 1 -769 11 -1116 44 -88 9 -241 23 -340
31 -99 9 -234 23 -300 31 -66 8 -154 19 -195 24 -41 4 -118 16 -170 25 -52 8
-162 27 -245 41 -175 29 -215 37 -350 69 -55 13 -131 31 -170 40 -38 8 -92 22
-120 30 -27 8 -84 24 -125 35 -130 37 -375 118 -507 169 -71 27 -202 77 -293
112 -242 91 -634 247 -715 284 -38 17 -104 47 -145 65 -143 64 -535 268 -628
327 -29 18 -55 33 -57 33 -6 0 -120 72 -466 293 -180 115 -733 491 -818 556
-546 419 -803 575 -1056 639 -138 35 -161 38 -185 22z"/>
</g>
</svg>
