<svg width="3000" height="1999.9999999999998" xmlns="http://www.w3.org/2000/svg" preserveAspectRatio="xMidYMid meet" version="1.0">

 <g>
  <title>Layer 1</title>
  <g id="svg_1" fill="#000000" transform="translate(0 2000) scale(0.1 -0.1)">
   <path fill="#e50000" id="svg_2" d="m17454.05365,18847.83905c-30,-4 -108,-8 -172,-9c-64,-1 -138,-5 -165,-10c-212,-42 -522,-52 -2013,-62c-1342,-9 -1687,-18 -1995,-54c-27,-3 -113,-12 -190,-21c-77,-8 -156,-17 -175,-20c-43,-8 -154,-22 -235,-30c-33,-3 -64,-10 -70,-15c-5,-5 -20,-9 -34,-9c-13,0 -38,-4 -55,-10c-56,-18 -200,-53 -239,-57c-20,-3 -40,-9 -43,-14c-3,-5 -17,-9 -31,-9c-15,0 -40,-4 -57,-9c-17,-5 -51,-15 -76,-22c-25,-6 -63,-17 -85,-24c-22,-7 -60,-19 -85,-25c-97,-27 -116,-33 -132,-41c-10,-5 -27,-9 -37,-9c-11,0 -22,-4 -25,-9c-3,-5 -18,-11 -33,-14c-30,-5 -87,-24 -115,-38c-10,-5 -27,-9 -37,-9c-11,0 -23,-4 -26,-10c-3,-5 -15,-10 -26,-10c-10,0 -27,-4 -37,-9c-9,-5 -39,-16 -67,-25c-55,-17 -159,-53 -190,-66c-11,-5 -76,-29 -145,-55c-69,-26 -134,-50 -145,-55c-11,-4 -36,-13 -55,-20c-19,-7 -59,-23 -88,-36c-29,-13 -55,-24 -57,-24c-3,0 -27,-9 -53,-21c-26,-12 -56,-25 -67,-29c-28,-11 -80,-34 -150,-65c-33,-15 -73,-33 -90,-40c-16,-7 -57,-25 -90,-40c-33,-15 -80,-36 -105,-47c-63,-28 -160,-74 -345,-163c-185,-89 -157,-75 -310,-155c-66,-34 -147,-77 -180,-94c-33,-17 -62,-33 -65,-36c-6,-6 -103,-58 -137,-75c-13,-5 -23,-13 -23,-17c0,-5 -9,-8 -20,-8c-11,0 -20,-4 -20,-10c0,-5 -5,-10 -10,-10c-6,0 -27,-11 -48,-23c-20,-13 -72,-43 -116,-66c-43,-24 -137,-79 -208,-122c-72,-44 -134,-79 -139,-79c-5,0 -9,-4 -9,-9c0,-5 -8,-11 -17,-14c-10,-4 -45,-22 -78,-42c-33,-20 -67,-38 -75,-41c-8,-3 -24,-10 -35,-14c-29,-13 -145,-52 -185,-63c-19,-5 -181,-13 -360,-18c-323,-8 -569,-20 -770,-38c-297,-26 -356,-32 -370,-37c-8,-3 -163,-10 -345,-16c-181,-5 -373,-13 -425,-18c-88,-8 -136,-13 -325,-39c-38,-5 -104,-14 -145,-20c-42,-5 -87,-12 -100,-15c-113,-27 -377,-46 -770,-56c-492,-12 -699,-32 -975,-90c-22,-5 -53,-12 -70,-15c-16,-4 -39,-10 -50,-15c-11,-4 -40,-14 -65,-21c-25,-7 -49,-15 -55,-19c-5,-3 -44,-19 -85,-35c-184,-70 -202,-94 -201,-278c0,-78 4,-134 10,-140c6,-6 11,-21 11,-34c0,-13 4,-31 9,-41c4,-9 34,-69 64,-132c31,-63 72,-139 92,-168c19,-30 35,-55 35,-58c0,-2 24,-41 53,-86c70,-110 79,-131 75,-159c-2,-19 -11,-25 -43,-30c-22,-3 -74,-14 -115,-24c-41,-9 -93,-21 -115,-25c-65,-14 -144,-33 -250,-59c-22,-6 -61,-14 -86,-20c-25,-5 -56,-14 -70,-19c-13,-6 -44,-15 -69,-22c-25,-7 -56,-16 -70,-20c-14,-4 -45,-13 -70,-20c-25,-6 -53,-16 -62,-21c-10,-5 -23,-9 -30,-9c-7,0 -42,-12 -78,-26c-36,-15 -74,-30 -85,-34c-80,-31 -251,-113 -316,-151c-25,-14 -65,-38 -90,-51c-85,-48 -94,-53 -99,-59c-3,-3 -36,-27 -75,-54c-171,-120 -373,-310 -512,-482c-44,-56 -163,-239 -163,-252c0,-6 -3,-11 -7,-11c-5,0 -13,-10 -19,-23c-5,-12 -31,-62 -56,-112c-102,-201 -147,-313 -214,-530c-9,-27 -20,-58 -25,-67c-5,-10 -9,-25 -9,-35c0,-9 -4,-30 -9,-47c-20,-66 -75,-295 -86,-356c-3,-19 -10,-60 -16,-90c-17,-93 -28,-171 -38,-255c-5,-44 -14,-111 -20,-150c-14,-90 -14,-542 0,-660c5,-49 14,-142 20,-205c6,-63 15,-153 19,-200c29,-281 29,-329 0,-630c-5,-52 -14,-162 -20,-245c-5,-82 -14,-215 -20,-295c-22,-319 -10,-1295 20,-1660c6,-69 15,-179 21,-245c30,-371 45,-524 64,-670c8,-66 20,-158 26,-205c19,-144 39,-282 58,-385c10,-54 22,-110 52,-245c6,-25 13,-62 16,-83c3,-20 9,-40 14,-43c5,-3 9,-17 9,-31c0,-15 4,-40 10,-57c29,-93 59,-186 70,-226c8,-25 17,-49 22,-54c4,-6 8,-18 8,-28c0,-10 4,-26 9,-36c5,-9 24,-53 41,-97c46,-117 128,-282 170,-345c89,-130 232,-228 420,-285c47,-15 96,-30 110,-35c14,-5 45,-11 70,-14c25,-3 70,-11 100,-16c247,-45 1315,-46 1825,-1c93,8 75,16 -55,26c-270,20 -361,31 -615,70c-93,15 -199,31 -235,35c-74,10 -173,26 -210,33c-61,13 -149,30 -340,68c-113,23 -223,45 -245,49c-79,16 -118,29 -125,41c-7,10 2,48 30,124c4,11 29,88 56,170c26,83 51,154 56,159c4,6 8,18 8,28c0,10 4,26 10,36c9,16 87,261 111,347c6,22 15,51 19,65c8,26 34,125 51,195c6,22 15,54 20,71c5,17 9,44 9,61c0,16 4,43 9,59c5,16 14,67 20,114c28,220 42,329 51,380c5,30 11,71 14,90c3,19 7,49 11,65c3,17 8,40 11,53c2,13 9,20 14,17c6,-4 10,-299 10,-805l0,-799l37,-10c56,-14 173,-39 213,-46c50,-8 146,-25 208,-36c96,-17 156,-27 226,-38c37,-6 72,-13 76,-16c4,-2 33,-9 66,-15c32,-6 82,-16 109,-21c28,-6 68,-12 90,-16c22,-3 44,-9 50,-14c5,-5 20,-9 33,-9c25,0 67,-10 157,-36c72,-21 166,-45 195,-51c14,-2 34,-8 45,-13c11,-4 40,-13 65,-20c25,-7 63,-18 85,-25c22,-7 60,-18 85,-25c25,-8 49,-17 55,-22c5,-4 19,-8 31,-8c13,0 26,-4 29,-10c3,-5 16,-10 29,-10c12,0 26,-4 32,-9c5,-5 27,-14 49,-21c22,-7 56,-19 75,-27c50,-22 71,-29 110,-43c19,-7 49,-18 65,-25c17,-7 57,-22 90,-35c81,-30 96,-36 125,-48c14,-6 117,-47 230,-92c113,-45 219,-88 235,-95c17,-7 89,-37 160,-65c72,-29 134,-57 139,-62c6,-4 19,-8 31,-8c12,0 25,-4 31,-8c5,-5 63,-30 129,-57c66,-26 140,-56 165,-67c25,-11 60,-26 78,-34c17,-8 47,-20 65,-28c17,-8 56,-24 86,-36c30,-12 84,-35 120,-52c36,-16 75,-34 86,-38c11,-4 46,-20 78,-34c32,-14 60,-26 62,-26c3,0 27,-9 53,-21c26,-12 56,-25 67,-29c11,-4 46,-20 78,-34c32,-14 60,-26 62,-26c3,0 27,-9 53,-21c26,-12 56,-25 67,-29c11,-4 46,-20 78,-34c32,-14 60,-26 62,-26c3,0 25,-9 50,-20c25,-11 65,-29 90,-40c25,-11 47,-20 50,-20c2,0 30,-12 62,-26c32,-14 67,-30 78,-34c34,-13 98,-42 139,-61c22,-11 46,-19 53,-19c7,0 13,-3 13,-8c0,-4 18,-13 40,-20c22,-7 74,-28 116,-47c41,-19 81,-35 88,-35c6,0 16,-4 22,-9c5,-4 39,-20 77,-35c37,-14 89,-35 115,-47c26,-12 56,-25 67,-29c11,-4 36,-15 55,-23c19,-9 58,-25 86,-36c28,-11 73,-29 100,-41c27,-12 58,-26 69,-30c11,-4 41,-17 67,-29c26,-12 50,-21 53,-21c2,0 30,-12 62,-26c32,-14 69,-31 83,-36c14,-6 33,-14 42,-19c10,-5 22,-9 28,-9c5,0 35,-12 67,-26c32,-14 67,-29 78,-34c49,-18 260,-124 263,-132c2,-4 8,-8 14,-8c32,0 209,-157 276,-245c25,-33 49,-62 52,-65c3,-3 19,-23 35,-45c17,-22 32,-42 35,-45c3,-3 24,-27 45,-55c22,-27 53,-63 69,-80c16,-16 59,-66 96,-110c85,-100 385,-403 482,-486c40,-34 96,-83 124,-108c84,-75 145,-124 219,-176c39,-27 76,-55 82,-61c22,-21 356,-239 413,-269c30,-16 73,-39 95,-51c22,-13 112,-59 200,-103c145,-71 201,-98 260,-121c11,-4 36,-15 55,-23c19,-9 60,-25 90,-36c30,-12 64,-25 75,-30c11,-5 36,-14 55,-21c19,-7 44,-16 55,-20c47,-20 260,-87 345,-109c19,-5 53,-14 75,-20c90,-23 253,-60 295,-66c407,-60 455,-63 1295,-76c597,-9 893,-9 1385,1c880,18 1194,27 1275,40c208,31 236,36 365,65c41,10 95,21 120,26c25,4 66,13 93,19c26,5 68,15 95,20c26,6 67,15 92,20c63,12 95,19 170,35c123,26 287,35 660,35c361,0 544,-8 715,-31c81,-11 198,-23 405,-40c63,-5 338,-14 610,-19c513,-9 916,-24 1080,-39c498,-44 885,-52 1238,-26c87,6 114,18 75,32c-10,3 -29,14 -43,23c-14,10 -56,29 -95,44c-38,15 -79,31 -90,36c-37,16 -148,36 -270,49c-49,6 -112,13 -140,16c-81,9 -481,47 -590,56c-55,4 -138,12 -185,18c-47,5 -128,14 -180,20c-52,6 -194,22 -315,37c-121,14 -254,30 -295,35c-41,4 -106,12 -145,18c-183,27 -217,32 -310,46c-154,25 -312,48 -405,60c-126,16 -214,26 -300,35c-52,6 -140,17 -195,25c-55,8 -140,19 -190,25c-49,6 -112,15 -138,20c-27,6 -66,10 -87,10c-22,0 -61,4 -87,9c-26,5 -86,14 -133,20c-88,12 -232,34 -332,51c-32,6 -85,15 -118,20c-166,28 -269,47 -395,75c-38,8 -88,19 -110,24c-191,42 -502,135 -540,161c-5,4 -48,27 -95,52c-122,64 -164,92 -260,172c-143,119 -239,227 -332,376c-33,53 -123,230 -140,278c-4,12 -12,32 -17,45c-48,120 -91,298 -121,502c-28,187 -57,483 -71,710c-10,176 -22,339 -38,515c-16,179 -29,342 -41,495c-6,77 -13,147 -16,155c-3,8 -10,69 -15,135c-5,66 -14,165 -19,220c-6,55 -14,141 -19,190c-15,146 -29,272 -47,405c-8,69 -20,163 -25,210c-5,47 -13,121 -18,165c-5,44 -15,121 -20,170c-6,50 -15,124 -20,165c-6,41 -15,120 -21,175c-6,55 -13,107 -16,115c-3,8 -10,53 -15,100c-15,134 -27,238 -38,325c-6,44 -15,118 -20,165c-5,47 -12,96 -15,110c-4,14 -11,66 -17,115c-31,277 -31,274 -58,418c-6,31 -15,81 -21,110c-15,81 -41,218 -51,262c-9,45 -15,77 -30,155c-6,30 -15,73 -19,95c-43,194 -63,283 -71,303c-5,13 -9,33 -9,44c0,12 -4,35 -9,52c-10,32 -13,44 -56,206c-29,108 -44,164 -55,200c-4,14 -13,45 -20,70c-7,25 -23,77 -35,115c-12,39 -30,93 -38,120c-26,80 -87,257 -101,290c-8,17 -30,73 -51,125c-35,87 -46,114 -93,220c-67,153 -154,322 -290,562c-172,303 -431,634 -602,770c-65,51 -235,160 -305,195c-64,33 -234,103 -300,124c-22,7 -44,17 -49,21c-6,4 -22,8 -37,8c-15,0 -30,4 -33,9c-3,5 -20,11 -38,14c-18,3 -62,12 -98,21c-79,19 -254,41 -330,40c-84,0 -267,-22 -340,-40c-36,-9 -80,-18 -98,-21c-18,-3 -35,-9 -38,-14c-3,-5 -16,-9 -29,-9c-13,0 -27,-4 -30,-10c-3,-5 -13,-10 -21,-10c-21,0 -166,-71 -259,-127c-267,-161 -523,-454 -795,-912c-48,-80 -266,-406 -319,-476c-70,-93 -161,-185 -183,-185c-24,0 -32,53 -25,160c7,108 35,207 82,284c19,32 35,60 35,61c0,6 81,136 150,239c212,320 510,665 735,851c33,28 68,58 79,67c62,56 409,288 430,288c2,0 43,18 91,40c170,80 250,107 455,154c269,62 328,71 590,91c404,30 646,12 1045,-81c83,-19 164,-39 180,-44c80,-25 270,-91 301,-105c19,-8 49,-21 67,-29c210,-92 427,-212 674,-372c248,-162 586,-412 789,-584c56,-47 123,-103 149,-125c68,-55 331,-280 381,-324c22,-20 56,-50 75,-66c18,-17 97,-86 174,-155c77,-69 171,-152 209,-185c38,-33 94,-83 125,-111c31,-28 94,-84 141,-124c47,-39 105,-91 130,-114c25,-23 133,-118 240,-211c107,-93 197,-172 200,-175c3,-3 41,-37 85,-75c44,-39 138,-122 210,-185c71,-63 146,-129 165,-146c110,-97 284,-258 424,-395c187,-180 308,-292 451,-414c32,-27 63,-55 69,-60c6,-6 70,-60 141,-120c72,-60 175,-147 229,-194c55,-47 114,-97 132,-111c17,-14 73,-60 125,-104c210,-176 216,-181 430,-351c90,-71 209,-164 264,-206c55,-41 154,-117 220,-167c123,-94 482,-356 648,-471c267,-187 906,-588 1117,-703c36,-19 82,-44 102,-56c20,-11 99,-53 175,-93c76,-40 145,-76 153,-80c8,-5 44,-22 80,-38c36,-16 109,-49 162,-75c54,-25 100,-46 102,-46c3,0 31,-12 63,-26c32,-14 67,-30 78,-34c11,-4 36,-15 55,-23c19,-8 71,-29 115,-47c44,-17 89,-35 100,-40c11,-4 36,-13 55,-20c19,-7 44,-16 55,-20c71,-31 154,-60 168,-60c9,0 19,-4 22,-10c3,-5 15,-10 26,-10c10,0 27,-4 37,-9c9,-5 69,-25 132,-44c114,-36 128,-40 205,-58c90,-22 113,-28 170,-44c33,-9 80,-21 105,-26c136,-30 130,-29 275,-58c28,-6 81,-15 119,-21c37,-6 72,-12 76,-15c4,-3 39,-10 76,-16c38,-6 94,-15 124,-20c30,-5 80,-14 110,-19c30,-5 80,-14 110,-19c30,-5 90,-14 133,-20c42,-5 82,-13 87,-16c10,-6 113,-18 315,-36c345,-31 855,-54 1115,-52c292,3 1066,23 1220,31c140,8 129,11 -100,32c-63,6 -152,15 -197,20c-198,24 -262,32 -328,41c-38,5 -115,14 -170,19c-218,23 -304,32 -390,41c-111,11 -262,26 -397,38c-116,11 -415,48 -568,71c-60,8 -96,14 -250,40c-48,8 -247,44 -390,71c-25,4 -66,13 -92,19c-27,5 -67,14 -90,19c-185,38 -511,122 -753,193c-294,86 -663,223 -905,335c-41,19 -113,52 -160,73c-148,66 -411,196 -534,264c-66,36 -121,66 -122,66c-2,0 -29,15 -61,34c-32,18 -83,47 -113,63c-196,107 -360,209 -755,469c-192,126 -511,352 -595,421c-8,7 -73,56 -145,109c-245,183 -489,383 -849,694c-67,58 -143,123 -170,145c-26,22 -53,45 -59,50c-7,6 -88,73 -182,150c-185,152 -209,172 -269,226c-23,20 -54,47 -71,61c-16,14 -91,78 -165,143c-74,64 -148,129 -165,143c-51,43 -180,157 -185,162c-3,3 -81,73 -175,155c-93,82 -188,166 -209,185c-21,19 -44,40 -50,45c-6,6 -47,42 -91,81c-44,39 -145,129 -225,200c-80,71 -161,143 -180,160c-19,17 -62,55 -95,85c-78,69 -183,163 -365,325c-80,70 -161,142 -180,160c-19,17 -136,121 -260,230c-124,109 -230,203 -236,209c-6,5 -42,37 -80,70c-38,33 -91,80 -119,106c-76,68 -214,189 -270,234c-27,22 -76,63 -109,91c-136,112 -389,312 -516,407c-74,55 -151,112 -170,127c-155,119 -546,345 -740,429c-30,12 -68,29 -85,36c-16,8 -79,32 -140,55c-60,23 -118,45 -127,51c-10,5 -25,9 -33,9c-8,0 -23,4 -33,9c-9,5 -57,21 -107,36c-49,15 -101,31 -115,35c-14,4 -43,13 -65,19c-74,20 -210,62 -233,72c-13,5 -34,9 -47,9c-13,0 -27,5 -30,10c-3,6 -15,10 -26,10c-10,0 -27,4 -37,9c-9,5 -48,19 -87,31c-67,21 -89,29 -172,66l-37,17l23,18c13,11 32,19 43,19c12,0 37,4 57,9c97,25 259,53 476,82c39,5 104,14 145,20c122,16 222,25 465,42c707,49 962,54 1940,33c603,-13 816,-15 900,-6c61,6 160,15 220,21c61,5 133,14 160,19c28,6 72,13 98,17c80,10 76,22 -56,172c-130,147 -154,239 -143,561c11,355 42,564 126,855c5,17 12,41 15,55c4,14 10,34 15,45c4,11 25,65 45,119c38,99 133,294 155,316c3,3 12,17 20,32c63,113 258,331 375,418c142,107 346,225 505,293c151,64 416,157 570,198c41,12 89,24 105,29c17,4 77,21 135,38c159,45 262,68 665,153c28,5 68,14 90,19c47,11 383,75 470,90c74,13 137,25 240,44c44,8 112,20 150,26c39,6 95,15 125,20c30,5 89,14 130,20c41,6 100,15 130,21c79,13 321,48 415,60c44,6 114,15 155,20c41,5 111,14 155,19c44,4 177,20 295,35c118,14 256,31 305,36c50,5 131,14 180,19c50,6 137,15 195,20c58,5 143,14 190,19c127,14 488,49 630,61c69,6 175,15 235,20c255,22 361,31 560,45c116,9 248,20 295,25c47,5 164,14 260,20c96,6 211,15 255,20c323,38 539,48 1140,55c458,6 843,22 1010,43c81,10 -1004,25 -1840,25c-1668,0 -6208,-23 -6285,-31c-47,-6 -132,-15 -190,-21c-58,-6 -116,-13 -130,-16c-24,-5 -136,-17 -335,-36c-55,-6 -143,-14 -195,-20c-226,-22 -627,-30 -1740,-34c-890,-3 -1243,-7 -1418,-18c-128,-8 -236,-17 -239,-20c-3,-3 2,-20 11,-38c9,-18 16,-36 16,-41c0,-5 19,-50 43,-101c24,-51 50,-107 58,-124c7,-18 17,-33 21,-33c5,0 8,-4 8,-10c0,-5 16,-34 35,-64c19,-30 35,-60 35,-66c0,-5 4,-10 8,-10c4,0 16,-15 26,-32c11,-18 111,-167 222,-330c112,-163 204,-299 204,-302c0,-3 20,-36 43,-73c24,-37 58,-93 74,-123c17,-30 50,-89 75,-130c24,-41 66,-115 93,-165c26,-49 58,-108 70,-130c23,-42 97,-181 173,-325c24,-47 103,-200 174,-340c72,-140 147,-286 168,-325c20,-38 54,-101 75,-140c21,-38 57,-104 80,-145c110,-195 245,-462 245,-486c0,-3 6,-20 14,-37c52,-121 53,-120 -118,-112c-72,4 -156,11 -186,16c-30,6 -98,15 -150,20c-52,6 -131,15 -175,20c-181,21 -457,29 -935,27c-502,-3 -755,7 -845,33c-108,31 -501,231 -513,261c-2,4 -8,8 -13,8c-9,0 -148,88 -159,101c-3,3 -39,30 -81,60c-213,151 -245,174 -259,188c-12,12 -16,62 -22,265c-8,288 -19,374 -63,501c-94,272 -406,575 -702,680c-26,9 -57,21 -68,25c-51,19 -94,30 -118,30c-14,0 -29,5 -32,10c-3,6 -16,10 -27,10c-12,0 -35,4 -52,9c-17,5 -76,17 -131,26c-55,9 -113,19 -130,22c-16,3 -68,9 -115,14c-47,5 -139,14 -205,21c-153,16 -688,16 -865,0c-239,-21 -488,-50 -500,-57c-4,-3 -50,-10 -102,-16c-137,-16 -306,-39 -438,-58c-36,-5 -99,-14 -140,-20c-41,-6 -86,-13 -99,-16c-25,-6 -126,-17 -316,-35c-55,-6 -119,-12 -141,-16c-23,-3 -44,-2 -48,4c-9,15 26,42 245,189c233,156 689,471 794,548c209,153 989,675 1009,675c3,0 36,20 73,43c106,68 463,255 589,310c51,21 259,92 419,141c66,20 134,41 151,47c17,5 48,9 70,9c21,0 66,5 99,10c63,10 224,0 340,-21c122,-23 329,-83 377,-109c10,-6 24,-10 31,-10c7,0 31,-8 53,-19c41,-20 116,-53 174,-78c74,-32 128,-59 225,-113c288,-162 454,-288 690,-525c186,-185 231,-233 300,-320c21,-28 42,-52 45,-55c3,-3 17,-21 30,-40c13,-19 27,-37 30,-40c19,-17 145,-193 225,-313c51,-78 138,-209 194,-292c56,-82 110,-163 120,-180c10,-16 51,-81 90,-143c39,-62 71,-115 71,-118c0,-3 13,-24 28,-47c16,-23 57,-89 92,-147c120,-197 357,-559 418,-635c4,-5 18,-26 32,-45c13,-19 44,-60 69,-90c25,-30 47,-57 48,-59c2,-2 6,-1 10,3c7,6 -6,49 -34,116c-8,19 -18,44 -23,55c-4,11 -13,34 -20,50c-7,17 -16,39 -21,50c-9,22 -108,232 -160,340c-18,39 -57,112 -86,163c-29,52 -53,95 -53,97c0,2 -14,28 -31,57c-18,29 -52,91 -77,138c-24,47 -56,105 -70,130c-14,25 -39,72 -57,105c-30,56 -44,80 -96,173c-12,20 -33,57 -47,82c-51,91 -60,107 -106,183c-25,43 -46,80 -46,83c0,20 -333,508 -470,689c-129,170 -199,304 -236,455c-24,99 -22,104 44,124c149,44 265,63 452,75c80,5 942,12 1915,15c1075,3 1796,9 1835,15c64,10 205,23 470,42c136,10 255,20 450,38c58,5 164,14 235,20c72,5 182,15 245,22c86,9 430,12 1355,11c944,-2 1350,1 1700,13c253,9 494,19 535,23l75,7l-120,12c-301,31 -782,33 -6310,19l-3371,-9l-89,28c-50,16 -102,36 -117,47c-14,10 -29,18 -32,18c-13,0 -93,56 -171,119c-110,90 -118,98 -113,113c6,13 187,58 313,77c263,39 565,51 1260,51c347,1 642,5 685,11c41,5 118,14 170,20c52,6 131,15 175,20c44,5 121,14 170,20c50,6 124,14 165,19c41,5 134,13 205,19c72,5 180,14 240,20c68,6 1010,13 2470,17c2411,6 3501,16 3705,34c63,5 160,14 215,20c55,5 420,14 810,19c938,12 1819,30 1875,37c150,20 598,42 1023,50l327,6l0,28l0,28l-737,6c-1188,10 -10053,15 -10113,6zm-10457,-2697c19,-11 -5,-42 -68,-88c-22,-17 -47,-37 -55,-45c-8,-9 -33,-29 -55,-46c-22,-16 -49,-37 -60,-47c-11,-10 -56,-44 -100,-75c-44,-31 -86,-62 -93,-69c-7,-7 -16,-13 -20,-13c-4,0 -23,-14 -42,-30c-19,-16 -40,-30 -47,-30c-6,0 -13,-4 -15,-8c-4,-11 -176,-122 -188,-122c-6,0 -10,-4 -10,-8c0,-5 -15,-16 -32,-25c-33,-17 -41,-22 -113,-68c-22,-14 -47,-29 -55,-33c-8,-3 -42,-22 -75,-41c-33,-19 -78,-44 -100,-55c-22,-11 -53,-29 -70,-39c-31,-19 -32,-19 -110,14c-288,121 -472,233 -657,399c-133,119 -142,130 -129,154c11,20 157,101 233,128c103,37 145,44 528,84c52,6 131,15 175,20c44,6 103,12 130,14c28,2 100,9 160,16c177,19 445,28 660,23c110,-3 203,-7 208,-10zm5612,-244c174,-8 254,-15 264,-24c11,-11 8,-14 -18,-20c-17,-3 -33,-11 -36,-16c-4,-5 -16,-10 -28,-11c-12,0 12,-5 53,-9c279,-30 477,-110 650,-261c39,-34 110,-157 110,-190c0,-9 5,-20 10,-23c6,-3 10,-17 10,-30c0,-13 5,-27 10,-30c6,-3 10,-19 10,-35c0,-16 4,-31 9,-34c5,-3 11,-20 14,-38c5,-37 44,-182 57,-213c4,-11 14,-40 21,-65c28,-96 92,-175 229,-282c41,-32 80,-61 85,-66c15,-11 173,-125 200,-142c71,-48 111,-75 115,-80c3,-3 37,-28 75,-55c135,-95 290,-235 283,-257c-3,-7 -29,-18 -59,-25c-70,-15 -411,-16 -458,-2c-93,28 -258,125 -451,264c-51,37 -96,64 -190,113c-71,37 -56,36 -240,13c-131,-17 -256,-42 -308,-62c-13,-5 -38,-9 -57,-9c-19,0 -37,-4 -40,-10c-3,-5 -25,-10 -49,-10c-23,0 -46,-4 -51,-9c-10,-9 -33,-13 -185,-30c-47,-6 -109,-15 -139,-21c-74,-14 -2389,-13 -2451,1c-24,5 -83,14 -130,20c-160,18 -175,20 -195,29c-11,5 -36,11 -55,14c-48,6 -91,16 -115,25c-11,5 -47,16 -80,26c-33,10 -80,27 -105,38c-25,10 -54,23 -65,27c-11,5 -49,21 -84,36l-64,29l7,110c23,388 179,732 411,908c138,104 323,174 690,261c274,64 261,61 440,89c290,45 337,49 685,54c190,3 347,7 349,9c9,9 632,3 866,-7zm-7740,-1018c323,-24 704,-98 1001,-196c126,-42 313,-129 452,-212c53,-31 113,-67 133,-78c64,-36 273,-196 404,-309c178,-153 811,-784 955,-951c52,-60 99,-115 105,-121c27,-28 183,-223 239,-299c17,-22 32,-42 35,-45c4,-3 31,-39 62,-80c193,-261 262,-355 329,-451c41,-59 104,-148 140,-198c175,-246 263,-372 388,-551c75,-107 141,-200 147,-206c5,-6 35,-46 65,-88c30,-42 58,-76 62,-76c15,0 -91,323 -167,510c-73,180 -361,751 -484,958c-17,29 -31,55 -31,57c0,2 -25,46 -56,97c-31,51 -71,118 -88,148c-39,67 -283,435 -300,453c-7,6 -37,48 -68,92c-31,44 -65,89 -75,100c-10,11 -25,30 -33,41c-107,152 -491,560 -709,752c-42,37 -105,94 -141,128c-36,33 -90,83 -120,110c-84,74 -308,303 -352,358c-37,47 -39,51 -22,63c39,29 460,8 769,-37c154,-23 941,-185 1047,-216c10,-3 25,-22 34,-42c8,-20 20,-45 25,-54c5,-10 9,-26 9,-36c0,-10 4,-22 8,-28c5,-5 16,-28 25,-51c15,-37 34,-82 70,-163c27,-60 91,-142 132,-170c114,-78 360,-156 650,-205c230,-38 621,-55 1281,-55c474,0 796,-13 1024,-40c207,-26 260,-33 330,-47c41,-9 95,-19 120,-24c63,-11 108,-28 114,-44c4,-12 -62,-65 -82,-65c-4,0 -14,-6 -20,-12c-19,-19 -162,-95 -382,-204c-564,-278 -534,-262 -726,-389c-267,-177 -476,-361 -701,-616c-114,-128 -323,-403 -323,-424c0,-3 -24,-42 -53,-88c-72,-112 -182,-337 -237,-482c-12,-33 -26,-69 -30,-80c-12,-29 -26,-74 -40,-125c-7,-25 -17,-58 -22,-75c-10,-29 -23,-88 -34,-150c-3,-16 -9,-39 -14,-50c-5,-11 -11,-36 -15,-55c-3,-19 -8,-48 -11,-65c-3,-16 -9,-39 -14,-50c-5,-11 -25,-67 -44,-125c-60,-180 -140,-318 -311,-535c-96,-122 -198,-261 -274,-373c-60,-88 -221,-342 -221,-348c0,-1 -20,-37 -45,-79c-56,-94 -182,-343 -225,-445c-18,-41 -40,-93 -50,-115c-10,-23 -28,-70 -41,-105c-12,-36 -25,-69 -30,-74c-5,-6 -9,-20 -9,-32c0,-13 -4,-26 -10,-29c-5,-3 -10,-15 -10,-26c0,-10 -4,-27 -9,-37c-11,-19 -53,-136 -71,-197c-7,-22 -16,-50 -21,-63c-5,-13 -9,-34 -9,-47c0,-13 -4,-27 -10,-30c-5,-3 -10,-16 -10,-27c0,-12 -4,-35 -9,-52c-21,-72 -40,-143 -46,-171c-21,-103 -27,-135 -31,-175c-3,-25 -9,-54 -14,-65c-5,-11 -11,-40 -14,-65c-13,-124 -25,-211 -32,-222c-4,-7 -12,-49 -16,-93c-5,-44 -13,-116 -19,-160c-5,-44 -12,-114 -15,-155c-2,-41 -9,-84 -14,-95c-5,-11 -11,-54 -14,-95c-5,-78 -19,-166 -28,-175c-6,-6 -191,9 -296,24c-113,16 -216,102 -575,481c-140,148 -210,209 -256,223c-161,51 -353,77 -771,106c-150,11 -339,30 -360,36c-8,3 -58,10 -110,16c-52,6 -120,15 -150,19c-30,5 -91,14 -135,20c-44,6 -105,15 -135,19c-30,5 -93,14 -140,20c-47,6 -92,14 -100,17c-15,5 -162,22 -284,31l-69,5l8,-53c32,-227 46,-264 161,-405c55,-68 334,-349 364,-368c14,-8 39,-28 55,-43c17,-16 62,-51 100,-78c39,-27 72,-52 75,-55c3,-4 38,-29 79,-56c41,-27 97,-64 125,-83c28,-19 65,-42 82,-52c17,-9 42,-23 55,-31c13,-7 26,-16 29,-19c6,-6 678,-340 805,-399c124,-58 211,-98 270,-125c28,-13 82,-37 120,-55c39,-18 88,-40 110,-50c22,-10 69,-31 105,-48c36,-16 82,-37 103,-46c82,-36 115,-50 172,-76c33,-15 76,-34 95,-43c19,-8 67,-29 105,-46c39,-18 79,-36 90,-40c11,-5 91,-43 178,-86c136,-67 167,-87 227,-146c39,-37 70,-73 70,-80c0,-7 16,-46 36,-88c20,-42 41,-86 45,-98c5,-13 13,-33 19,-45c5,-13 23,-63 39,-111c16,-49 32,-91 35,-94c3,-4 6,-17 6,-29c0,-13 5,-26 10,-29c6,-3 10,-15 10,-26c0,-17 19,-86 60,-215c6,-17 10,-40 10,-52c0,-11 5,-24 10,-27c6,-3 10,-19 10,-35c0,-16 4,-31 9,-34c5,-3 11,-20 14,-38c3,-18 9,-45 12,-60c7,-25 5,-28 -19,-28c-14,0 -119,41 -233,91c-115,50 -271,118 -348,151c-77,33 -158,68 -180,78c-22,10 -114,51 -205,90c-91,39 -183,80 -205,90c-52,23 -278,123 -380,167c-119,53 -146,65 -308,137c-81,36 -149,66 -151,66c-2,0 -37,15 -78,34c-40,18 -113,52 -163,74c-49,22 -120,54 -158,71c-37,17 -69,31 -71,31c-2,0 -50,22 -107,49c-57,26 -187,85 -289,131c-102,45 -222,100 -268,121c-45,22 -84,39 -86,39c-2,0 -59,26 -127,59c-68,32 -149,70 -179,84c-30,13 -100,46 -155,72c-55,26 -127,60 -160,75c-33,15 -103,48 -155,73c-52,24 -126,59 -165,77c-136,63 -387,191 -438,223c-29,18 -59,36 -67,39c-53,21 -270,192 -404,318c-196,185 -402,497 -475,720c-39,118 -41,126 -41,153c0,14 -4,37 -10,52c-12,32 -28,193 -42,430c-6,99 -14,234 -19,300c-8,117 -21,333 -37,625c-5,80 -11,152 -15,160c-3,8 -11,71 -18,140c-6,69 -16,166 -21,215c-5,50 -13,295 -18,545c-13,586 -27,813 -65,1025c-19,108 -33,198 -45,285c-5,36 -14,94 -20,130c-6,36 -15,92 -20,125c-4,33 -16,96 -25,140c-30,150 -36,180 -42,228c-3,26 -10,50 -14,53c-5,3 -9,23 -9,44c0,21 -4,42 -10,45c-5,3 -10,17 -10,31c0,14 -9,53 -19,87c-11,34 -27,89 -36,122c-18,63 -32,107 -45,140c-4,11 -14,40 -21,65c-7,25 -28,80 -46,123c-18,43 -33,85 -33,93c0,8 -4,14 -10,14c-5,0 -10,7 -10,15c0,26 -149,312 -188,360c-4,6 -22,30 -39,55c-32,47 -194,210 -209,210c-4,0 -17,9 -28,19c-24,22 -170,99 -236,124c-73,27 -223,23 -329,-9c-117,-36 -139,-44 -256,-99c-227,-105 -243,-111 -252,-89c-6,17 2,34 64,142c24,41 43,78 43,83c0,5 5,9 10,9c6,0 10,4 10,10c0,18 201,325 230,350c3,3 15,17 25,31c91,118 288,306 446,425c74,57 346,224 363,224c2,0 43,18 90,40c121,57 249,103 411,148c239,67 257,71 565,117c58,9 173,27 255,40c83,13 195,28 250,35c55,6 132,15 170,20c39,5 142,14 230,20c88,6 212,15 275,20c138,10 488,5 695,-9zm7425,-2602c97,-13 120,-28 120,-75c0,-18 5,-36 10,-39c6,-3 10,-23 10,-43c0,-20 4,-44 9,-51c15,-24 -6,-51 -39,-51c-16,0 -32,-4 -35,-10c-3,-5 -19,-10 -34,-10c-15,0 -41,-4 -57,-9c-16,-5 -56,-17 -89,-26c-33,-10 -69,-21 -80,-25c-11,-4 -69,-24 -130,-43c-115,-38 -216,-72 -250,-87c-11,-4 -47,-18 -80,-30c-33,-13 -73,-29 -90,-36c-209,-87 -560,-211 -678,-238c-39,-9 -43,11 -16,70c60,127 196,313 300,410c145,135 347,243 529,285c91,21 466,26 600,8zm-11017,-72c30,-94 22,-357 -15,-502c-5,-22 -14,-60 -18,-85c-5,-25 -14,-67 -20,-95c-6,-27 -13,-63 -16,-80c-3,-16 -9,-39 -14,-50c-5,-11 -11,-36 -14,-55c-3,-19 -12,-64 -21,-100c-24,-99 -36,-160 -41,-215c-3,-27 -9,-59 -14,-70c-5,-11 -12,-42 -15,-70c-3,-27 -10,-81 -15,-120c-23,-174 -43,-533 -51,-910c-4,-225 -13,-466 -19,-535c-14,-163 -14,-323 0,-545c6,-99 15,-355 20,-570c4,-214 10,-406 14,-425c4,-19 11,-96 17,-170c21,-262 67,-588 96,-675c6,-16 16,-55 22,-85c13,-62 28,-121 42,-166c5,-17 9,-40 9,-52c0,-11 5,-24 10,-27c6,-3 10,-15 10,-26c0,-20 46,-171 61,-201c5,-10 9,-29 9,-42c0,-14 5,-28 10,-31c6,-3 10,-17 10,-30c0,-13 5,-27 10,-30c6,-3 10,-16 10,-29c0,-12 4,-26 9,-31c11,-13 41,-109 41,-132c-1,-21 -162,-193 -182,-193c-12,0 -158,199 -158,216c0,4 -6,15 -14,23c-44,51 -111,217 -147,364c-5,20 -14,56 -20,80c-11,45 -23,100 -38,170c-5,23 -17,74 -26,112c-9,39 -21,97 -27,130c-5,33 -14,85 -19,115c-10,55 -21,142 -38,295c-5,44 -14,123 -20,175c-25,215 -31,298 -38,565c-11,405 -8,1678 5,1970c13,313 29,521 42,559c6,16 10,66 10,110c0,45 4,86 9,91c5,6 12,42 15,80c10,127 35,298 61,415c29,129 36,164 42,205c3,22 9,44 14,49c5,6 9,19 9,30c0,57 120,339 183,431c47,68 175,215 187,215c4,0 14,-24 23,-53zm12062,-946c22,-10 52,-31 66,-47c39,-43 139,-213 139,-238c0,-15 -55,-30 -140,-38c-52,-4 -129,-12 -170,-17c-41,-6 -107,-14 -146,-19c-39,-5 -76,-12 -82,-16c-6,-3 -44,-11 -84,-17c-197,-29 -395,-70 -520,-109c-34,-11 -81,-25 -103,-31c-22,-6 -49,-15 -60,-19c-11,-4 -38,-13 -60,-20c-96,-29 -301,-118 -433,-186c-230,-120 -543,-335 -758,-521c-99,-85 -376,-361 -429,-427c-22,-27 -45,-54 -50,-60c-36,-38 -175,-221 -254,-335c-82,-118 -221,-343 -221,-358c0,-2 -9,-17 -19,-31c-20,-29 -91,-168 -139,-272c-63,-138 -73,-161 -113,-267c-22,-59 -44,-117 -49,-128c-17,-42 -65,-195 -91,-290c-6,-22 -15,-48 -20,-57c-5,-10 -9,-28 -9,-41c0,-13 -4,-27 -9,-32c-5,-6 -11,-28 -14,-50c-3,-22 -13,-69 -22,-105c-8,-36 -18,-81 -21,-100c-3,-19 -10,-44 -14,-55c-5,-11 -12,-45 -15,-75c-3,-30 -9,-86 -15,-125c-43,-319 -55,-577 -41,-826c18,-317 25,-389 60,-614c17,-112 30,-180 46,-240c28,-105 36,-139 42,-173c3,-18 9,-35 14,-38c5,-3 9,-16 9,-30c0,-13 4,-32 9,-42c4,-9 16,-39 26,-67c53,-153 68,-192 86,-227c5,-10 9,-22 9,-27c0,-5 13,-38 29,-73c16,-35 39,-85 51,-113c54,-123 135,-282 208,-407c12,-21 32,-55 43,-75c12,-21 41,-69 65,-106c24,-37 44,-70 44,-73c0,-5 198,-273 210,-284c3,-3 28,-32 55,-65c28,-33 67,-79 89,-102c21,-23 46,-53 54,-65c25,-37 241,-241 331,-314c13,-10 38,-31 55,-45c17,-14 47,-36 66,-49c19,-14 40,-29 46,-35c6,-6 37,-30 70,-53c203,-146 197,-142 374,-246c65,-38 372,-186 385,-186c4,0 21,-6 38,-14c18,-7 48,-19 67,-26c19,-7 44,-16 55,-21c34,-14 145,-48 181,-55c19,-3 37,-10 40,-15c3,-5 18,-9 34,-9c16,0 32,-5 35,-10c3,-5 21,-10 40,-10c19,0 37,-5 40,-10c3,-6 17,-10 30,-10c24,0 64,-8 175,-36c30,-7 78,-16 105,-19c28,-4 82,-11 120,-16c288,-40 619,-40 860,0c119,20 131,22 180,36c28,7 70,19 95,25c25,6 59,16 76,21c17,5 40,9 52,9c11,0 24,5 27,10c3,6 17,10 30,10c13,0 34,4 47,9c13,5 50,17 83,26c33,9 69,21 80,25c11,5 31,11 45,14c14,2 43,10 65,16c22,6 51,14 65,16c14,3 34,9 45,14c39,15 132,40 151,40c11,0 24,4 29,9c10,9 71,20 134,24c33,2 34,1 62,-73c16,-41 33,-84 38,-95c30,-66 33,-84 19,-99c-14,-14 -240,-126 -253,-126c-4,0 -21,-6 -38,-14c-115,-50 -403,-146 -440,-146c-14,0 -28,-4 -31,-9c-3,-4 -20,-11 -38,-14c-18,-4 -62,-14 -98,-22c-99,-24 -260,-50 -400,-65c-47,-5 -123,-14 -170,-19c-109,-12 -549,-12 -660,0c-286,32 -408,52 -580,94c-58,15 -121,30 -140,35c-19,5 -52,13 -72,19c-21,6 -53,15 -70,20c-48,13 -160,50 -183,61c-11,5 -56,22 -101,39c-291,109 -792,389 -1024,573c-174,138 -254,210 -441,397c-321,322 -527,597 -767,1028c-269,481 -474,1117 -538,1663c-81,693 -16,1425 182,2045c40,126 172,479 216,579c122,277 297,591 447,800c31,43 65,91 76,106c95,132 329,405 445,520c127,124 240,228 345,315c33,28 62,52 65,55c28,30 491,360 505,360c2,0 47,25 100,55c54,30 99,55 100,55c2,0 45,20 96,43c141,66 176,81 279,122c52,20 104,41 115,46c11,4 40,15 65,23c25,8 79,27 120,42c41,14 90,30 108,35c17,5 47,13 65,18c93,27 309,80 382,93c28,5 75,13 105,19c271,48 443,59 505,30zm-210,-645c110,-52 221,-216 328,-486c21,-52 43,-103 48,-112c5,-10 9,-25 9,-33c0,-8 4,-23 9,-33c5,-9 14,-37 21,-62c6,-25 17,-65 25,-90c17,-60 51,-232 60,-310c23,-194 28,-323 29,-660c0,-442 -12,-776 -28,-789c-6,-5 -78,-12 -161,-15c-82,-3 -216,-9 -297,-12c-81,-4 -158,-4 -172,0c-29,7 -60,65 -304,552c-135,269 -258,492 -302,547c-5,7 -46,61 -91,121c-45,60 -97,126 -116,147c-19,20 -45,52 -59,70c-13,18 -54,64 -91,103c-38,39 -84,89 -102,111c-19,22 -53,61 -77,87c-80,85 -274,323 -274,335c0,11 120,106 175,140c11,7 52,31 90,55c84,51 202,112 270,140c28,11 65,27 83,35c41,18 224,82 272,95c142,39 434,85 545,87c44,1 73,-6 110,-23zm-2480,-2160c174,-24 284,-43 373,-65c23,-6 59,-15 80,-20c42,-10 157,-47 187,-61c11,-5 38,-14 60,-21c22,-7 44,-17 50,-21c5,-4 15,-8 21,-8c15,0 295,-136 364,-176c38,-22 191,-122 265,-174c76,-53 202,-159 305,-257l64,-61l-16,-34c-10,-18 -32,-58 -49,-88c-18,-30 -45,-80 -62,-110c-16,-30 -46,-82 -65,-115c-35,-60 -47,-81 -94,-165c-14,-25 -34,-60 -44,-77l-19,-33l-390,7c-275,4 -421,2 -495,-6c-199,-23 -265,-31 -310,-40c-25,-5 -63,-12 -85,-16c-22,-3 -56,-10 -75,-15c-19,-5 -62,-16 -95,-24c-156,-37 -363,-97 -575,-166c-49,-16 -92,-29 -247,-76c-66,-20 -73,-3 -73,171c2,460 79,875 235,1257c101,245 171,348 270,394c46,22 60,24 175,20c69,-2 179,-11 245,-20zm3768,-561c4,-28 12,-72 16,-100c32,-177 54,-451 49,-620c-3,-114 -5,-130 -21,-133c-14,-3 -37,37 -113,195c-117,243 -110,228 -125,283c-7,25 -16,49 -21,55c-17,19 -9,134 13,178c20,39 114,156 149,184c28,23 45,10 53,-42zm-2347,-1787c158,-162 216,-253 264,-414c15,-52 5,-127 -28,-209c-23,-54 -134,-277 -172,-342c-74,-129 -94,-167 -168,-318c-44,-88 -86,-176 -95,-195c-32,-74 -49,-117 -63,-160c-8,-25 -19,-54 -23,-65c-5,-11 -30,-87 -56,-170c-26,-82 -51,-158 -56,-167c-5,-10 -9,-27 -9,-37c0,-11 -4,-30 -9,-43c-5,-13 -21,-63 -36,-113c-15,-49 -31,-101 -35,-115c-4,-14 -13,-45 -20,-70c-7,-25 -16,-56 -20,-70c-62,-200 -84,-268 -91,-285c-4,-11 -13,-38 -20,-60c-19,-58 -30,-68 -63,-55c-44,16 -233,148 -333,232c-121,101 -355,336 -438,438c-59,74 -159,215 -204,290c-131,216 -123,377 34,655c83,147 193,305 290,415c212,241 349,368 589,548c61,45 116,86 122,91c22,18 276,181 322,207c147,84 207,112 222,104c8,-5 51,-46 96,-92zm2458,45c4,-16 11,-48 16,-73c5,-25 16,-79 25,-120c27,-130 44,-273 61,-506c8,-117 3,-119 -119,-58c-223,112 -357,196 -357,222c0,24 134,258 242,425c94,143 119,164 132,110zm-978,-950c22,-20 124,-178 171,-263c17,-30 39,-71 51,-91c11,-20 51,-95 87,-165c70,-133 100,-190 166,-307c22,-38 39,-71 39,-73c0,-2 38,-63 85,-134c88,-135 212,-307 306,-421c30,-37 68,-83 84,-104c17,-21 52,-66 79,-99c82,-103 155,-221 176,-282c14,-41 20,-86 20,-149c0,-146 -31,-181 -250,-286c-58,-28 -115,-55 -127,-60c-28,-11 -66,-26 -95,-38c-13,-5 -41,-16 -63,-25c-63,-25 -238,-67 -379,-91c-119,-20 -356,-20 -445,1c-62,14 -73,20 -108,62c-133,159 -271,445 -335,692c-11,41 -24,91 -29,110c-109,407 -136,995 -69,1500c20,155 29,202 40,215c10,12 52,15 204,18c105,1 232,3 282,5c75,2 94,-1 110,-15zm2291,-3564c27,-6 74,-17 105,-25c32,-8 69,-14 82,-14c14,0 28,-4 31,-10c3,-5 21,-10 40,-10c19,0 37,-4 40,-10c3,-5 21,-10 40,-10c19,0 36,-4 39,-9c3,-5 20,-11 38,-14c61,-10 133,-29 143,-38c5,-5 24,-9 41,-9c18,0 36,-4 39,-10c3,-5 21,-10 40,-10c19,0 37,-4 40,-10c3,-5 19,-10 36,-10c16,0 37,-4 47,-9c9,-5 55,-22 102,-37c47,-15 89,-31 95,-36c5,-4 18,-8 30,-8c12,0 25,-4 30,-8c6,-4 28,-14 50,-22c22,-7 69,-26 104,-42c62,-28 63,-29 46,-48c-14,-16 -35,-20 -129,-24c-61,-2 -183,-9 -271,-15c-180,-11 -925,-4 -1020,10c-33,5 -94,9 -135,9c-42,0 -80,4 -85,9c-6,5 -37,12 -70,15c-71,6 -164,21 -220,34c-22,6 -66,16 -98,23c-89,20 -90,36 -4,98c97,70 256,174 287,187c14,6 36,16 50,23c67,30 121,39 252,40c76,1 159,-4 185,-10z"/>
   <path fill="#e50000" id="svg_3" d="m4204.05365,13407.83905c-19,-4 -80,-14 -135,-20c-117,-15 -182,-25 -247,-39c-27,-6 -68,-15 -93,-19c-26,-5 -50,-13 -55,-18c-11,-11 14,-274 40,-416c5,-32 14,-82 19,-110c5,-29 21,-107 36,-173c14,-66 31,-142 36,-170c5,-27 14,-72 19,-100c22,-102 30,-145 65,-360c31,-181 39,-245 85,-649c6,-55 13,-103 16,-108c3,-5 10,-45 15,-91c15,-121 26,-202 39,-292c6,-44 15,-111 20,-150c21,-190 31,-262 36,-278c3,-10 10,-58 15,-105c5,-48 14,-125 20,-172c6,-47 14,-119 19,-160c5,-41 14,-106 19,-145c5,-38 14,-108 20,-155c6,-47 14,-92 17,-100c3,-8 10,-51 16,-95c5,-44 14,-109 19,-145c5,-36 14,-94 19,-130c19,-138 59,-343 81,-416c5,-17 9,-42 9,-57c0,-14 4,-28 9,-31c5,-3 11,-23 14,-43c6,-48 17,-86 57,-198c34,-97 37,-105 69,-177c12,-26 21,-50 21,-53c0,-12 91,-143 121,-176c41,-43 122,-99 143,-99c8,0 17,-4 20,-9c3,-4 22,-11 43,-14c21,-4 70,-13 108,-22c82,-18 174,-34 265,-45c36,-5 101,-13 145,-19c156,-20 231,-30 320,-41c50,-6 97,-13 106,-16c22,-6 194,-24 339,-34c63,-4 134,-11 158,-15c37,-7 42,-5 42,11c0,43 -55,231 -165,560c-124,374 -154,476 -187,643c-22,105 -22,127 -29,1606c-7,1586 -6,1584 -54,1795c-33,148 -56,209 -93,245c-42,40 -124,85 -157,85c-13,0 -26,4 -29,9c-6,9 -16,11 -131,30c-149,24 -408,32 -802,25l-403,-7l0,26c0,14 19,54 43,89l42,63l75,6c156,13 840,19 1005,10c224,-13 334,-43 459,-126c99,-65 152,-133 196,-250c28,-74 30,-163 30,-1673c0,-930 4,-1568 9,-1601c6,-31 15,-90 22,-131c23,-149 29,-186 39,-240c6,-30 13,-71 16,-90c3,-19 9,-44 13,-55c5,-11 14,-38 20,-60c6,-22 22,-75 36,-119c14,-43 25,-85 25,-92c0,-8 4,-22 9,-32c13,-26 26,-58 69,-172c32,-85 41,-100 46,-80c17,77 26,400 26,948c0,566 2,642 25,927c34,426 49,1090 42,1885c-6,624 -6,637 -31,774c-32,176 -52,240 -113,361c-57,111 -123,174 -223,212c-239,89 -288,93 -1180,92c-410,-1 -761,-5 -780,-9z"/>
   <path fill="#e50000" id="svg_4" d="m28314.05365,18811.83905l0,-27l272,6c149,4 442,7 651,7c209,0 378,2 375,5c-14,15 -369,29 -805,32l-493,4l0,-27z"/>
   <path fill="#e50000" id="svg_5" d="m19189.05365,11947.83905c-22,-5 -62,-9 -89,-9c-74,-1 -156,-31 -208,-76c-30,-25 -108,-141 -108,-159c0,-6 -11,-33 -25,-60c-14,-27 -25,-60 -25,-73c0,-36 408,-440 655,-648c110,-93 214,-181 230,-196c66,-59 819,-711 950,-823c77,-66 142,-123 145,-126c42,-46 532,-451 807,-666c433,-339 812,-606 1078,-759c66,-38 131,-76 145,-85c60,-41 515,-273 710,-363c69,-32 133,-63 142,-68c10,-5 22,-9 27,-9c5,0 42,-15 83,-34c40,-18 129,-54 198,-80c69,-26 133,-52 142,-57c10,-5 25,-9 33,-9c8,0 23,-4 33,-9c25,-14 136,-54 222,-81c41,-13 121,-38 177,-57c104,-34 185,-57 258,-74c72,-18 109,-27 185,-46c79,-21 131,-32 290,-63c25,-5 59,-11 75,-15c169,-33 353,-68 400,-76c66,-10 178,-29 240,-39c28,-5 75,-13 106,-19c32,-5 65,-12 75,-15c99,-30 764,-72 764,-48c0,13 -19,26 -60,41c-19,7 -44,17 -55,21c-48,21 -156,59 -225,80c-41,13 -100,31 -130,40c-30,10 -82,26 -115,35c-33,9 -71,21 -85,25c-14,4 -43,13 -65,19c-22,6 -103,29 -180,52c-77,22 -150,43 -162,46c-52,12 -38,46 61,153c150,160 216,249 216,290c0,10 5,22 10,25c22,14 4,164 -22,191c-4,3 -69,-34 -145,-84c-149,-97 -282,-167 -378,-200c-157,-53 -791,-55 -1066,-4c-113,21 -302,74 -364,102c-11,5 -45,19 -75,30c-30,12 -78,32 -108,46c-29,13 -54,24 -56,24c-12,0 -204,115 -286,170c-150,103 -340,310 -380,416c-6,16 -18,43 -26,61c-26,54 -11,285 31,473c9,41 20,98 24,125c3,28 10,55 14,61c4,7 -1,15 -11,19c-31,13 -266,52 -622,104c-36,5 -85,14 -110,19c-25,6 -72,16 -105,22c-33,7 -70,16 -83,21c-13,5 -36,9 -52,9c-16,0 -32,5 -35,10c-3,6 -16,10 -28,10c-26,0 -102,25 -242,80c-65,25 -312,151 -380,194c-250,156 -365,284 -440,487c-24,64 -28,90 -29,194c-1,137 11,181 75,276c89,132 325,249 504,249c33,0 89,5 123,10c35,6 114,15 175,20c124,11 236,25 312,39c28,6 70,14 95,19c71,13 93,34 48,45c-13,3 -39,10 -58,15c-163,46 -216,56 -375,73c-49,5 -171,14 -270,20c-205,12 -307,19 -595,42c-113,10 -349,22 -525,27c-423,14 -572,30 -760,82c-57,16 -71,42 -32,57c89,34 1122,53 1419,26c188,-17 428,-48 573,-74c28,-5 68,-12 90,-16c22,-3 58,-10 80,-15c22,-5 74,-16 115,-25c41,-9 91,-20 110,-25c19,-4 60,-13 90,-20c30,-6 73,-15 95,-20c22,-5 76,-16 120,-25c168,-35 394,-110 565,-186c196,-87 585,-300 808,-443c203,-129 538,-313 697,-381c22,-9 48,-21 58,-26c26,-14 21,-3 -27,60c-73,94 -291,306 -411,399c-343,265 -673,497 -870,613c-110,65 -375,196 -470,234c-38,15 -78,31 -87,36c-10,5 -25,9 -33,9c-8,0 -23,4 -33,9c-28,15 -165,51 -327,86c-34,7 -118,20 -220,34c-38,5 -77,11 -85,15c-8,3 -53,11 -100,17c-47,6 -112,16 -145,21c-139,21 -299,41 -454,57c-57,6 -111,13 -120,15c-16,6 -153,20 -351,37c-118,11 -345,25 -620,39c-260,13 -1087,21 -1135,10z"/>
   <path fill="#e50000" id="svg_6" d="m18694.05365,7387.83905c-8,-5 -24,-10 -35,-10c-32,-1 -111,-65 -139,-113c-40,-68 -73,-174 -82,-262c-15,-155 -8,-472 16,-670c33,-281 49,-487 61,-795c14,-369 44,-678 84,-875c10,-44 21,-102 26,-130c18,-101 68,-296 103,-400c13,-38 29,-90 37,-115c11,-40 38,-107 86,-220c91,-213 209,-387 383,-561c192,-192 340,-289 700,-457c58,-26 121,-54 140,-62c19,-7 39,-17 44,-22c6,-4 16,-8 23,-8c7,0 32,-9 56,-19c46,-21 209,-82 272,-102c22,-7 44,-17 49,-21c6,-4 18,-8 28,-8c10,0 26,-4 36,-10c18,-10 135,-49 212,-70c25,-6 53,-16 62,-21c10,-5 25,-9 33,-9c14,0 89,-22 211,-60c17,-6 40,-10 52,-10c11,0 24,-4 27,-10c3,-6 21,-10 40,-10c19,0 36,-4 39,-9c3,-4 22,-11 43,-14c21,-3 70,-13 108,-23c39,-9 89,-20 113,-25c23,-5 63,-14 90,-19c77,-18 168,-35 295,-58c31,-6 61,-13 65,-16c5,-3 37,-10 73,-16c35,-6 89,-16 119,-21c195,-35 241,-43 350,-58c124,-17 510,-26 510,-12c0,6 -8,14 -17,17c-10,4 -36,14 -58,24c-51,23 -238,88 -435,151c-85,28 -164,54 -175,59c-11,4 -132,45 -270,90c-137,45 -267,90 -289,101c-22,10 -43,19 -48,19c-17,0 -244,105 -436,202c-438,221 -783,533 -1058,955c-75,114 -214,379 -214,406c0,7 -4,17 -9,22c-4,6 -24,53 -43,105c-50,132 -49,131 -59,168c-5,17 -14,49 -20,70c-6,20 -14,53 -19,72c-5,19 -16,62 -25,95c-27,102 -63,287 -84,430c-4,33 -13,92 -19,130c-23,147 -32,299 -32,547c0,150 4,268 10,283c9,25 14,27 48,21c20,-4 62,-11 92,-15c114,-18 167,-40 212,-88c57,-59 68,-113 108,-498c5,-49 13,-126 19,-170c5,-44 14,-125 20,-180c7,-55 14,-107 17,-115c3,-8 9,-44 15,-80c5,-36 14,-87 19,-115c5,-27 12,-66 15,-85c3,-19 10,-53 15,-75c5,-22 16,-71 25,-110c9,-38 20,-81 24,-95c5,-14 14,-45 21,-70c6,-25 16,-53 21,-62c5,-10 9,-26 9,-36c0,-10 4,-22 8,-27c4,-6 14,-28 21,-50c28,-82 129,-283 193,-380c95,-146 305,-346 583,-554c299,-224 488,-342 785,-489c153,-76 195,-95 275,-127c22,-9 49,-20 60,-24c11,-5 36,-14 55,-21c19,-7 44,-15 55,-20c11,-4 36,-12 55,-18c149,-44 220,-65 253,-73c20,-5 54,-13 75,-18c63,-16 302,-54 438,-70c118,-14 354,-14 354,-1c0,6 -32,50 -70,98c-250,310 -355,461 -437,632c-25,52 -50,106 -56,120c-5,14 -12,32 -16,40c-6,13 -38,113 -72,226c-12,39 -12,228 0,268c44,148 78,227 118,272c35,38 118,96 164,113c19,7 43,17 54,21c76,31 222,45 430,41c110,-3 517,-5 905,-5c712,0 915,7 1150,39c63,9 158,21 210,26c159,16 416,42 585,58c55,6 161,17 235,26c74,9 173,21 220,26c118,12 234,27 305,38c153,23 203,32 235,41c19,6 53,10 75,11l40,1l-32,14c-64,28 -416,44 -962,44c-514,1 -769,11 -1116,44c-88,9 -241,23 -340,31c-99,9 -234,23 -300,31c-66,8 -154,19 -195,24c-41,4 -118,16 -170,25c-52,8 -162,27 -245,41c-175,29 -215,37 -350,69c-55,13 -131,31 -170,40c-38,8 -92,22 -120,30c-27,8 -84,24 -125,35c-130,37 -375,118 -507,169c-71,27 -202,77 -293,112c-242,91 -634,247 -715,284c-38,17 -104,47 -145,65c-143,64 -535,268 -628,327c-29,18 -55,33 -57,33c-6,0 -120,72 -466,293c-180,115 -733,491 -818,556c-546,419 -803,575 -1056,639c-138,35 -161,38 -185,22z"/>
  </g>
 </g>
</svg>